<?xml version="1.0" encoding="utf-8" standalone="no"?>
<!DOCTYPE svg PUBLIC "-//W3C//DTD SVG 1.1//EN"
  "http://www.w3.org/Graphics/SVG/1.1/DTD/svg11.dtd">
<!-- Created with matplotlib (http://matplotlib.org/) -->
<svg height="469pt" version="1.1" viewBox="0 0 729 469" width="729pt" xmlns="http://www.w3.org/2000/svg" xmlns:xlink="http://www.w3.org/1999/xlink">
 <defs>
  <style type="text/css">
*{stroke-linecap:butt;stroke-linejoin:round;}
  </style>
 </defs>
 <g id="figure_1">
  <g id="patch_1">
   <path d="M 0 469.458125 
L 729.942813 469.458125 
L 729.942813 0 
L 0 0 
z
" style="fill:none;"/>
  </g>
  <g id="axes_1">
   <g id="patch_2">
    <path d="M 38.482813 445.58 
L 347.919176 445.58 
L 347.919176 10.7 
L 38.482813 10.7 
z
" style="fill:#ffffff;"/>
   </g>
   <g id="matplotlib.axis_1">
    <g id="xtick_1">
     <g id="line2d_1">
      <defs>
       <path d="M 0 0 
L 0 3.5 
" id="mfc952e6623" style="stroke:#000000;stroke-width:0.8;"/>
      </defs>
      <g>
       <use style="stroke:#000000;stroke-width:0.8;" x="52.548102" xlink:href="#mfc952e6623" y="445.58"/>
      </g>
     </g>
     <g id="text_1">
      <!-- 0 -->
      <defs>
       <path d="M 31.78125 66.40625 
Q 24.171875 66.40625 20.328125 58.90625 
Q 16.5 51.421875 16.5 36.375 
Q 16.5 21.390625 20.328125 13.890625 
Q 24.171875 6.390625 31.78125 6.390625 
Q 39.453125 6.390625 43.28125 13.890625 
Q 47.125 21.390625 47.125 36.375 
Q 47.125 51.421875 43.28125 58.90625 
Q 39.453125 66.40625 31.78125 66.40625 
z
M 31.78125 74.21875 
Q 44.046875 74.21875 50.515625 64.515625 
Q 56.984375 54.828125 56.984375 36.375 
Q 56.984375 17.96875 50.515625 8.265625 
Q 44.046875 -1.421875 31.78125 -1.421875 
Q 19.53125 -1.421875 13.0625 8.265625 
Q 6.59375 17.96875 6.59375 36.375 
Q 6.59375 54.828125 13.0625 64.515625 
Q 19.53125 74.21875 31.78125 74.21875 
z
" id="DejaVuSans-30"/>
      </defs>
      <g transform="translate(49.366852 460.178437)scale(0.1 -0.1)">
       <use xlink:href="#DejaVuSans-30"/>
      </g>
     </g>
    </g>
    <g id="xtick_2">
     <g id="line2d_2">
      <g>
       <use style="stroke:#000000;stroke-width:0.8;" x="109.035207" xlink:href="#mfc952e6623" y="445.58"/>
      </g>
     </g>
     <g id="text_2">
      <!-- 1 -->
      <defs>
       <path d="M 12.40625 8.296875 
L 28.515625 8.296875 
L 28.515625 63.921875 
L 10.984375 60.40625 
L 10.984375 69.390625 
L 28.421875 72.90625 
L 38.28125 72.90625 
L 38.28125 8.296875 
L 54.390625 8.296875 
L 54.390625 0 
L 12.40625 0 
z
" id="DejaVuSans-31"/>
      </defs>
      <g transform="translate(105.853957 460.178437)scale(0.1 -0.1)">
       <use xlink:href="#DejaVuSans-31"/>
      </g>
     </g>
    </g>
    <g id="xtick_3">
     <g id="line2d_3">
      <g>
       <use style="stroke:#000000;stroke-width:0.8;" x="165.522313" xlink:href="#mfc952e6623" y="445.58"/>
      </g>
     </g>
     <g id="text_3">
      <!-- 2 -->
      <defs>
       <path d="M 19.1875 8.296875 
L 53.609375 8.296875 
L 53.609375 0 
L 7.328125 0 
L 7.328125 8.296875 
Q 12.9375 14.109375 22.625 23.890625 
Q 32.328125 33.6875 34.8125 36.53125 
Q 39.546875 41.84375 41.421875 45.53125 
Q 43.3125 49.21875 43.3125 52.78125 
Q 43.3125 58.59375 39.234375 62.25 
Q 35.15625 65.921875 28.609375 65.921875 
Q 23.96875 65.921875 18.8125 64.3125 
Q 13.671875 62.703125 7.8125 59.421875 
L 7.8125 69.390625 
Q 13.765625 71.78125 18.9375 73 
Q 24.125 74.21875 28.421875 74.21875 
Q 39.75 74.21875 46.484375 68.546875 
Q 53.21875 62.890625 53.21875 53.421875 
Q 53.21875 48.921875 51.53125 44.890625 
Q 49.859375 40.875 45.40625 35.40625 
Q 44.1875 33.984375 37.640625 27.21875 
Q 31.109375 20.453125 19.1875 8.296875 
z
" id="DejaVuSans-32"/>
      </defs>
      <g transform="translate(162.341063 460.178437)scale(0.1 -0.1)">
       <use xlink:href="#DejaVuSans-32"/>
      </g>
     </g>
    </g>
    <g id="xtick_4">
     <g id="line2d_4">
      <g>
       <use style="stroke:#000000;stroke-width:0.8;" x="222.009418" xlink:href="#mfc952e6623" y="445.58"/>
      </g>
     </g>
     <g id="text_4">
      <!-- 3 -->
      <defs>
       <path d="M 40.578125 39.3125 
Q 47.65625 37.796875 51.625 33 
Q 55.609375 28.21875 55.609375 21.1875 
Q 55.609375 10.40625 48.1875 4.484375 
Q 40.765625 -1.421875 27.09375 -1.421875 
Q 22.515625 -1.421875 17.65625 -0.515625 
Q 12.796875 0.390625 7.625 2.203125 
L 7.625 11.71875 
Q 11.71875 9.328125 16.59375 8.109375 
Q 21.484375 6.890625 26.8125 6.890625 
Q 36.078125 6.890625 40.9375 10.546875 
Q 45.796875 14.203125 45.796875 21.1875 
Q 45.796875 27.640625 41.28125 31.265625 
Q 36.765625 34.90625 28.71875 34.90625 
L 20.21875 34.90625 
L 20.21875 43.015625 
L 29.109375 43.015625 
Q 36.375 43.015625 40.234375 45.921875 
Q 44.09375 48.828125 44.09375 54.296875 
Q 44.09375 59.90625 40.109375 62.90625 
Q 36.140625 65.921875 28.71875 65.921875 
Q 24.65625 65.921875 20.015625 65.03125 
Q 15.375 64.15625 9.8125 62.3125 
L 9.8125 71.09375 
Q 15.4375 72.65625 20.34375 73.4375 
Q 25.25 74.21875 29.59375 74.21875 
Q 40.828125 74.21875 47.359375 69.109375 
Q 53.90625 64.015625 53.90625 55.328125 
Q 53.90625 49.265625 50.4375 45.09375 
Q 46.96875 40.921875 40.578125 39.3125 
z
" id="DejaVuSans-33"/>
      </defs>
      <g transform="translate(218.828168 460.178437)scale(0.1 -0.1)">
       <use xlink:href="#DejaVuSans-33"/>
      </g>
     </g>
    </g>
    <g id="xtick_5">
     <g id="line2d_5">
      <g>
       <use style="stroke:#000000;stroke-width:0.8;" x="278.496524" xlink:href="#mfc952e6623" y="445.58"/>
      </g>
     </g>
     <g id="text_5">
      <!-- 4 -->
      <defs>
       <path d="M 37.796875 64.3125 
L 12.890625 25.390625 
L 37.796875 25.390625 
z
M 35.203125 72.90625 
L 47.609375 72.90625 
L 47.609375 25.390625 
L 58.015625 25.390625 
L 58.015625 17.1875 
L 47.609375 17.1875 
L 47.609375 0 
L 37.796875 0 
L 37.796875 17.1875 
L 4.890625 17.1875 
L 4.890625 26.703125 
z
" id="DejaVuSans-34"/>
      </defs>
      <g transform="translate(275.315274 460.178437)scale(0.1 -0.1)">
       <use xlink:href="#DejaVuSans-34"/>
      </g>
     </g>
    </g>
    <g id="xtick_6">
     <g id="line2d_6">
      <g>
       <use style="stroke:#000000;stroke-width:0.8;" x="334.983629" xlink:href="#mfc952e6623" y="445.58"/>
      </g>
     </g>
     <g id="text_6">
      <!-- 5 -->
      <defs>
       <path d="M 10.796875 72.90625 
L 49.515625 72.90625 
L 49.515625 64.59375 
L 19.828125 64.59375 
L 19.828125 46.734375 
Q 21.96875 47.46875 24.109375 47.828125 
Q 26.265625 48.1875 28.421875 48.1875 
Q 40.625 48.1875 47.75 41.5 
Q 54.890625 34.8125 54.890625 23.390625 
Q 54.890625 11.625 47.5625 5.09375 
Q 40.234375 -1.421875 26.90625 -1.421875 
Q 22.3125 -1.421875 17.546875 -0.640625 
Q 12.796875 0.140625 7.71875 1.703125 
L 7.71875 11.625 
Q 12.109375 9.234375 16.796875 8.0625 
Q 21.484375 6.890625 26.703125 6.890625 
Q 35.15625 6.890625 40.078125 11.328125 
Q 45.015625 15.765625 45.015625 23.390625 
Q 45.015625 31 40.078125 35.4375 
Q 35.15625 39.890625 26.703125 39.890625 
Q 22.75 39.890625 18.8125 39.015625 
Q 14.890625 38.140625 10.796875 36.28125 
z
" id="DejaVuSans-35"/>
      </defs>
      <g transform="translate(331.802379 460.178437)scale(0.1 -0.1)">
       <use xlink:href="#DejaVuSans-35"/>
      </g>
     </g>
    </g>
   </g>
   <g id="matplotlib.axis_2">
    <g id="ytick_1">
     <g id="line2d_7">
      <defs>
       <path d="M 0 0 
L -3.5 0 
" id="mc31ee8b4f6" style="stroke:#000000;stroke-width:0.8;"/>
      </defs>
      <g>
       <use style="stroke:#000000;stroke-width:0.8;" x="38.482813" xlink:href="#mc31ee8b4f6" y="422.406749"/>
      </g>
     </g>
     <g id="text_7">
      <!-- −0.6 -->
      <defs>
       <path d="M 10.59375 35.5 
L 73.1875 35.5 
L 73.1875 27.203125 
L 10.59375 27.203125 
z
" id="DejaVuSans-2212"/>
       <path d="M 10.6875 12.40625 
L 21 12.40625 
L 21 0 
L 10.6875 0 
z
" id="DejaVuSans-2e"/>
       <path d="M 33.015625 40.375 
Q 26.375 40.375 22.484375 35.828125 
Q 18.609375 31.296875 18.609375 23.390625 
Q 18.609375 15.53125 22.484375 10.953125 
Q 26.375 6.390625 33.015625 6.390625 
Q 39.65625 6.390625 43.53125 10.953125 
Q 47.40625 15.53125 47.40625 23.390625 
Q 47.40625 31.296875 43.53125 35.828125 
Q 39.65625 40.375 33.015625 40.375 
z
M 52.59375 71.296875 
L 52.59375 62.3125 
Q 48.875 64.0625 45.09375 64.984375 
Q 41.3125 65.921875 37.59375 65.921875 
Q 27.828125 65.921875 22.671875 59.328125 
Q 17.53125 52.734375 16.796875 39.40625 
Q 19.671875 43.65625 24.015625 45.921875 
Q 28.375 48.1875 33.59375 48.1875 
Q 44.578125 48.1875 50.953125 41.515625 
Q 57.328125 34.859375 57.328125 23.390625 
Q 57.328125 12.15625 50.6875 5.359375 
Q 44.046875 -1.421875 33.015625 -1.421875 
Q 20.359375 -1.421875 13.671875 8.265625 
Q 6.984375 17.96875 6.984375 36.375 
Q 6.984375 53.65625 15.1875 63.9375 
Q 23.390625 74.21875 37.203125 74.21875 
Q 40.921875 74.21875 44.703125 73.484375 
Q 48.484375 72.75 52.59375 71.296875 
z
" id="DejaVuSans-36"/>
      </defs>
      <g transform="translate(7.2 426.205967)scale(0.1 -0.1)">
       <use xlink:href="#DejaVuSans-2212"/>
       <use x="83.789062" xlink:href="#DejaVuSans-30"/>
       <use x="147.412109" xlink:href="#DejaVuSans-2e"/>
       <use x="179.199219" xlink:href="#DejaVuSans-36"/>
      </g>
     </g>
    </g>
    <g id="ytick_2">
     <g id="line2d_8">
      <g>
       <use style="stroke:#000000;stroke-width:0.8;" x="38.482813" xlink:href="#mc31ee8b4f6" y="373.414314"/>
      </g>
     </g>
     <g id="text_8">
      <!-- −0.4 -->
      <g transform="translate(7.2 377.213533)scale(0.1 -0.1)">
       <use xlink:href="#DejaVuSans-2212"/>
       <use x="83.789062" xlink:href="#DejaVuSans-30"/>
       <use x="147.412109" xlink:href="#DejaVuSans-2e"/>
       <use x="179.199219" xlink:href="#DejaVuSans-34"/>
      </g>
     </g>
    </g>
    <g id="ytick_3">
     <g id="line2d_9">
      <g>
       <use style="stroke:#000000;stroke-width:0.8;" x="38.482813" xlink:href="#mc31ee8b4f6" y="324.42188"/>
      </g>
     </g>
     <g id="text_9">
      <!-- −0.2 -->
      <g transform="translate(7.2 328.221098)scale(0.1 -0.1)">
       <use xlink:href="#DejaVuSans-2212"/>
       <use x="83.789062" xlink:href="#DejaVuSans-30"/>
       <use x="147.412109" xlink:href="#DejaVuSans-2e"/>
       <use x="179.199219" xlink:href="#DejaVuSans-32"/>
      </g>
     </g>
    </g>
    <g id="ytick_4">
     <g id="line2d_10">
      <g>
       <use style="stroke:#000000;stroke-width:0.8;" x="38.482813" xlink:href="#mc31ee8b4f6" y="275.429445"/>
      </g>
     </g>
     <g id="text_10">
      <!-- 0.0 -->
      <g transform="translate(15.579688 279.228664)scale(0.1 -0.1)">
       <use xlink:href="#DejaVuSans-30"/>
       <use x="63.623047" xlink:href="#DejaVuSans-2e"/>
       <use x="95.410156" xlink:href="#DejaVuSans-30"/>
      </g>
     </g>
    </g>
    <g id="ytick_5">
     <g id="line2d_11">
      <g>
       <use style="stroke:#000000;stroke-width:0.8;" x="38.482813" xlink:href="#mc31ee8b4f6" y="226.437011"/>
      </g>
     </g>
     <g id="text_11">
      <!-- 0.2 -->
      <g transform="translate(15.579688 230.236229)scale(0.1 -0.1)">
       <use xlink:href="#DejaVuSans-30"/>
       <use x="63.623047" xlink:href="#DejaVuSans-2e"/>
       <use x="95.410156" xlink:href="#DejaVuSans-32"/>
      </g>
     </g>
    </g>
    <g id="ytick_6">
     <g id="line2d_12">
      <g>
       <use style="stroke:#000000;stroke-width:0.8;" x="38.482813" xlink:href="#mc31ee8b4f6" y="177.444576"/>
      </g>
     </g>
     <g id="text_12">
      <!-- 0.4 -->
      <g transform="translate(15.579688 181.243795)scale(0.1 -0.1)">
       <use xlink:href="#DejaVuSans-30"/>
       <use x="63.623047" xlink:href="#DejaVuSans-2e"/>
       <use x="95.410156" xlink:href="#DejaVuSans-34"/>
      </g>
     </g>
    </g>
    <g id="ytick_7">
     <g id="line2d_13">
      <g>
       <use style="stroke:#000000;stroke-width:0.8;" x="38.482813" xlink:href="#mc31ee8b4f6" y="128.452142"/>
      </g>
     </g>
     <g id="text_13">
      <!-- 0.6 -->
      <g transform="translate(15.579688 132.25136)scale(0.1 -0.1)">
       <use xlink:href="#DejaVuSans-30"/>
       <use x="63.623047" xlink:href="#DejaVuSans-2e"/>
       <use x="95.410156" xlink:href="#DejaVuSans-36"/>
      </g>
     </g>
    </g>
    <g id="ytick_8">
     <g id="line2d_14">
      <g>
       <use style="stroke:#000000;stroke-width:0.8;" x="38.482813" xlink:href="#mc31ee8b4f6" y="79.459707"/>
      </g>
     </g>
     <g id="text_14">
      <!-- 0.8 -->
      <defs>
       <path d="M 31.78125 34.625 
Q 24.75 34.625 20.71875 30.859375 
Q 16.703125 27.09375 16.703125 20.515625 
Q 16.703125 13.921875 20.71875 10.15625 
Q 24.75 6.390625 31.78125 6.390625 
Q 38.8125 6.390625 42.859375 10.171875 
Q 46.921875 13.96875 46.921875 20.515625 
Q 46.921875 27.09375 42.890625 30.859375 
Q 38.875 34.625 31.78125 34.625 
z
M 21.921875 38.8125 
Q 15.578125 40.375 12.03125 44.71875 
Q 8.5 49.078125 8.5 55.328125 
Q 8.5 64.0625 14.71875 69.140625 
Q 20.953125 74.21875 31.78125 74.21875 
Q 42.671875 74.21875 48.875 69.140625 
Q 55.078125 64.0625 55.078125 55.328125 
Q 55.078125 49.078125 51.53125 44.71875 
Q 48 40.375 41.703125 38.8125 
Q 48.828125 37.15625 52.796875 32.3125 
Q 56.78125 27.484375 56.78125 20.515625 
Q 56.78125 9.90625 50.3125 4.234375 
Q 43.84375 -1.421875 31.78125 -1.421875 
Q 19.734375 -1.421875 13.25 4.234375 
Q 6.78125 9.90625 6.78125 20.515625 
Q 6.78125 27.484375 10.78125 32.3125 
Q 14.796875 37.15625 21.921875 38.8125 
z
M 18.3125 54.390625 
Q 18.3125 48.734375 21.84375 45.5625 
Q 25.390625 42.390625 31.78125 42.390625 
Q 38.140625 42.390625 41.71875 45.5625 
Q 45.3125 48.734375 45.3125 54.390625 
Q 45.3125 60.0625 41.71875 63.234375 
Q 38.140625 66.40625 31.78125 66.40625 
Q 25.390625 66.40625 21.84375 63.234375 
Q 18.3125 60.0625 18.3125 54.390625 
z
" id="DejaVuSans-38"/>
      </defs>
      <g transform="translate(15.579688 83.258926)scale(0.1 -0.1)">
       <use xlink:href="#DejaVuSans-30"/>
       <use x="63.623047" xlink:href="#DejaVuSans-2e"/>
       <use x="95.410156" xlink:href="#DejaVuSans-38"/>
      </g>
     </g>
    </g>
    <g id="ytick_9">
     <g id="line2d_15">
      <g>
       <use style="stroke:#000000;stroke-width:0.8;" x="38.482813" xlink:href="#mc31ee8b4f6" y="30.467273"/>
      </g>
     </g>
     <g id="text_15">
      <!-- 1.0 -->
      <g transform="translate(15.579688 34.266491)scale(0.1 -0.1)">
       <use xlink:href="#DejaVuSans-31"/>
       <use x="63.623047" xlink:href="#DejaVuSans-2e"/>
       <use x="95.410156" xlink:href="#DejaVuSans-30"/>
      </g>
     </g>
    </g>
   </g>
   <g id="line2d_16">
    <defs>
     <path d="M 0 3 
C 0.795609 3 1.55874 2.683901 2.12132 2.12132 
C 2.683901 1.55874 3 0.795609 3 0 
C 3 -0.795609 2.683901 -1.55874 2.12132 -2.12132 
C 1.55874 -2.683901 0.795609 -3 0 -3 
C -0.795609 -3 -1.55874 -2.683901 -2.12132 -2.12132 
C -2.683901 -1.55874 -3 -0.795609 -3 0 
C -3 0.795609 -2.683901 1.55874 -2.12132 2.12132 
C -1.55874 2.683901 -0.795609 3 0 3 
z
" id="mcd442be3f2" style="stroke:#0000ff;"/>
    </defs>
    <g clip-path="url(#p1855f4d043)">
     <use style="fill:#0000ff;stroke:#0000ff;" x="52.548102" xlink:href="#mcd442be3f2" y="30.467273"/>
     <use style="fill:#0000ff;stroke:#0000ff;" x="58.196812" xlink:href="#mcd442be3f2" y="96.110068"/>
     <use style="fill:#0000ff;stroke:#0000ff;" x="63.845523" xlink:href="#mcd442be3f2" y="213.453595"/>
     <use style="fill:#0000ff;stroke:#0000ff;" x="69.494233" xlink:href="#mcd442be3f2" y="331.507513"/>
     <use style="fill:#0000ff;stroke:#0000ff;" x="75.142944" xlink:href="#mcd442be3f2" y="408.272507"/>
     <use style="fill:#0000ff;stroke:#0000ff;" x="80.791654" xlink:href="#mcd442be3f2" y="424.006513"/>
     <use style="fill:#0000ff;stroke:#0000ff;" x="86.440365" xlink:href="#mcd442be3f2" y="384.192145"/>
     <use style="fill:#0000ff;stroke:#0000ff;" x="92.089076" xlink:href="#mcd442be3f2" y="313.019699"/>
     <use style="fill:#0000ff;stroke:#0000ff;" x="97.737786" xlink:href="#mcd442be3f2" y="241.416378"/>
     <use style="fill:#0000ff;stroke:#0000ff;" x="103.386497" xlink:href="#mcd442be3f2" y="194.856055"/>
     <use style="fill:#0000ff;stroke:#0000ff;" x="109.035207" xlink:href="#mcd442be3f2" y="185.312898"/>
     <use style="fill:#0000ff;stroke:#0000ff;" x="114.683918" xlink:href="#mcd442be3f2" y="209.461533"/>
     <use style="fill:#0000ff;stroke:#0000ff;" x="120.332628" xlink:href="#mcd442be3f2" y="252.629804"/>
     <use style="fill:#0000ff;stroke:#0000ff;" x="125.981339" xlink:href="#mcd442be3f2" y="296.059414"/>
     <use style="fill:#0000ff;stroke:#0000ff;" x="131.630049" xlink:href="#mcd442be3f2" y="324.299677"/>
     <use style="fill:#0000ff;stroke:#0000ff;" x="137.27876" xlink:href="#mcd442be3f2" y="330.087894"/>
     <use style="fill:#0000ff;stroke:#0000ff;" x="142.92747" xlink:href="#mcd442be3f2" y="315.441007"/>
     <use style="fill:#0000ff;stroke:#0000ff;" x="148.576181" xlink:href="#mcd442be3f2" y="289.258127"/>
     <use style="fill:#0000ff;stroke:#0000ff;" x="154.224892" xlink:href="#mcd442be3f2" y="262.916737"/>
     <use style="fill:#0000ff;stroke:#0000ff;" x="159.873602" xlink:href="#mcd442be3f2" y="245.788152"/>
     <use style="fill:#0000ff;stroke:#0000ff;" x="165.522313" xlink:href="#mcd442be3f2" y="242.27742"/>
     <use style="fill:#0000ff;stroke:#0000ff;" x="171.171023" xlink:href="#mcd442be3f2" y="251.161207"/>
     <use style="fill:#0000ff;stroke:#0000ff;" x="176.819734" xlink:href="#mcd442be3f2" y="267.041926"/>
     <use style="fill:#0000ff;stroke:#0000ff;" x="182.468444" xlink:href="#mcd442be3f2" y="283.018786"/>
     <use style="fill:#0000ff;stroke:#0000ff;" x="188.117155" xlink:href="#mcd442be3f2" y="293.407799"/>
     <use style="fill:#0000ff;stroke:#0000ff;" x="193.765865" xlink:href="#mcd442be3f2" y="295.537165"/>
     <use style="fill:#0000ff;stroke:#0000ff;" x="199.414576" xlink:href="#mcd442be3f2" y="290.148876"/>
     <use style="fill:#0000ff;stroke:#0000ff;" x="205.063286" xlink:href="#mcd442be3f2" y="280.516733"/>
     <use style="fill:#0000ff;stroke:#0000ff;" x="210.711997" xlink:href="#mcd442be3f2" y="270.826277"/>
     <use style="fill:#0000ff;stroke:#0000ff;" x="216.360708" xlink:href="#mcd442be3f2" y="264.525023"/>
     <use style="fill:#0000ff;stroke:#0000ff;" x="222.009418" xlink:href="#mcd442be3f2" y="263.233497"/>
     <use style="fill:#0000ff;stroke:#0000ff;" x="227.658129" xlink:href="#mcd442be3f2" y="266.501659"/>
     <use style="fill:#0000ff;stroke:#0000ff;" x="233.306839" xlink:href="#mcd442be3f2" y="272.343849"/>
     <use style="fill:#0000ff;stroke:#0000ff;" x="238.95555" xlink:href="#mcd442be3f2" y="278.221408"/>
     <use style="fill:#0000ff;stroke:#0000ff;" x="244.60426" xlink:href="#mcd442be3f2" y="282.043312"/>
     <use style="fill:#0000ff;stroke:#0000ff;" x="250.252971" xlink:href="#mcd442be3f2" y="282.826662"/>
     <use style="fill:#0000ff;stroke:#0000ff;" x="255.901681" xlink:href="#mcd442be3f2" y="280.844421"/>
     <use style="fill:#0000ff;stroke:#0000ff;" x="261.550392" xlink:href="#mcd442be3f2" y="277.300954"/>
     <use style="fill:#0000ff;stroke:#0000ff;" x="267.199102" xlink:href="#mcd442be3f2" y="273.736034"/>
     <use style="fill:#0000ff;stroke:#0000ff;" x="272.847813" xlink:href="#mcd442be3f2" y="271.417932"/>
     <use style="fill:#0000ff;stroke:#0000ff;" x="278.496524" xlink:href="#mcd442be3f2" y="270.942807"/>
     <use style="fill:#0000ff;stroke:#0000ff;" x="284.145234" xlink:href="#mcd442be3f2" y="272.145096"/>
     <use style="fill:#0000ff;stroke:#0000ff;" x="289.793945" xlink:href="#mcd442be3f2" y="274.294318"/>
     <use style="fill:#0000ff;stroke:#0000ff;" x="295.442655" xlink:href="#mcd442be3f2" y="276.456551"/>
     <use style="fill:#0000ff;stroke:#0000ff;" x="301.091366" xlink:href="#mcd442be3f2" y="277.862551"/>
     <use style="fill:#0000ff;stroke:#0000ff;" x="306.740076" xlink:href="#mcd442be3f2" y="278.150729"/>
     <use style="fill:#0000ff;stroke:#0000ff;" x="312.388787" xlink:href="#mcd442be3f2" y="277.421504"/>
     <use style="fill:#0000ff;stroke:#0000ff;" x="318.037497" xlink:href="#mcd442be3f2" y="276.117935"/>
     <use style="fill:#0000ff;stroke:#0000ff;" x="323.686208" xlink:href="#mcd442be3f2" y="274.806474"/>
     <use style="fill:#0000ff;stroke:#0000ff;" x="329.334918" xlink:href="#mcd442be3f2" y="273.953692"/>
    </g>
   </g>
   <g id="line2d_17">
    <path clip-path="url(#p1855f4d043)" d="M 52.548102 30.467273 
L 53.677844 37.2112 
L 54.807586 47.466552 
L 55.937328 60.933091 
L 57.06707 77.271455 
L 58.196812 96.110068 
L 60.456297 139.683708 
L 63.845523 213.453595 
L 67.234749 287.289223 
L 69.494233 331.507513 
L 70.623975 351.166659 
L 71.753718 368.854493 
L 72.88346 384.367951 
L 74.013202 397.546398 
L 75.142944 408.272507 
L 76.272686 416.472422 
L 77.402428 422.115224 
L 78.53217 425.211739 
L 79.661912 425.812727 
L 80.791654 424.006513 
L 81.921397 419.916114 
L 83.051139 413.695929 
L 84.180881 405.52806 
L 85.310623 395.618342 
L 86.440365 384.192145 
L 88.699849 357.763397 
L 92.089076 313.019699 
L 95.478302 268.236127 
L 97.737786 241.416378 
L 98.867528 229.492503 
L 99.99727 218.764289 
L 101.127012 209.354901 
L 102.256755 201.361769 
L 103.386497 194.856055 
L 104.516239 189.882556 
L 105.645981 186.460023 
L 106.775723 184.581892 
L 107.905465 184.217374 
L 109.035207 185.312898 
L 110.164949 187.79385 
L 111.294691 191.566583 
L 112.424434 196.520646 
L 113.554176 202.531195 
L 114.683918 209.461533 
L 116.943402 225.491379 
L 120.332628 252.629804 
L 123.721855 279.792414 
L 125.981339 296.059414 
L 127.111081 303.291609 
L 128.240823 309.7986 
L 129.370565 315.505682 
L 130.500307 320.353762 
L 131.630049 324.299677 
L 132.759791 327.316257 
L 133.889534 329.392128 
L 135.019276 330.531272 
L 136.149018 330.752363 
L 137.27876 330.087894 
L 138.408502 328.58312 
L 139.538244 326.294842 
L 140.667986 323.290051 
L 141.797728 319.644469 
L 142.92747 315.441007 
L 145.186955 305.718413 
L 148.576181 289.258127 
L 151.965407 272.783171 
L 154.224892 262.916737 
L 156.484376 254.583499 
L 157.614118 251.121979 
L 158.74386 248.18147 
L 159.873602 245.788152 
L 161.003344 243.958503 
L 162.133086 242.699424 
L 163.262828 242.008498 
L 164.392571 241.874399 
L 165.522313 242.27742 
L 166.652055 243.190112 
L 167.781797 244.578023 
L 168.911539 246.40052 
L 170.041281 248.611678 
L 171.171023 251.161207 
L 173.430507 257.058257 
L 176.819734 267.041926 
L 180.20896 277.034492 
L 182.468444 283.018786 
L 184.727929 288.073151 
L 185.857671 290.172669 
L 186.987413 291.956178 
L 188.117155 293.407799 
L 189.246897 294.517536 
L 190.376639 295.281207 
L 191.506381 295.700274 
L 192.636123 295.781609 
L 193.765865 295.537165 
L 194.895607 294.98359 
L 196.02535 294.141779 
L 197.155092 293.036378 
L 198.284834 291.695244 
L 200.544318 288.429833 
L 202.803802 284.61066 
L 209.582255 272.581795 
L 211.841739 269.212556 
L 214.101223 266.487228 
L 215.230965 265.405475 
L 216.360708 264.525023 
L 217.49045 263.851933 
L 218.620192 263.388743 
L 219.749934 263.134566 
L 220.879676 263.085234 
L 222.009418 263.233497 
L 223.13916 263.569257 
L 224.268902 264.079841 
L 225.398644 264.750301 
L 227.658129 266.501659 
L 229.917613 268.671063 
L 233.306839 272.343849 
L 236.696066 276.019909 
L 238.95555 278.221408 
L 241.215034 280.080804 
L 243.474518 281.50929 
L 244.60426 282.043312 
L 245.734002 282.451562 
L 246.863744 282.7325 
L 247.993487 282.886667 
L 249.123229 282.916588 
L 250.252971 282.826662 
L 252.512455 282.313328 
L 254.771939 281.413298 
L 257.031423 280.212021 
L 260.42065 278.060197 
L 266.06936 274.381853 
L 268.328845 273.14238 
L 270.588329 272.139787 
L 272.847813 271.417932 
L 275.107297 270.999919 
L 277.366781 270.888264 
L 279.626266 271.066326 
L 281.88575 271.500807 
L 284.145234 272.145096 
L 287.53446 273.380839 
L 295.442655 276.456551 
L 298.831882 277.424724 
L 301.091366 277.862551 
L 303.35085 278.116089 
L 305.610334 278.183811 
L 307.869818 278.075811 
L 311.259045 277.630782 
L 314.648271 276.937444 
L 325.945692 274.391587 
L 329.334918 273.953692 
L 332.724145 273.765514 
L 333.853887 273.758838 
L 333.853887 273.758838 
" style="fill:none;stroke:#008000;stroke-linecap:square;stroke-width:1.5;"/>
   </g>
   <g id="patch_3">
    <path d="M 38.482813 445.58 
L 38.482813 10.7 
" style="fill:none;stroke:#000000;stroke-linecap:square;stroke-linejoin:miter;stroke-width:0.8;"/>
   </g>
   <g id="patch_4">
    <path d="M 347.919176 445.58 
L 347.919176 10.7 
" style="fill:none;stroke:#000000;stroke-linecap:square;stroke-linejoin:miter;stroke-width:0.8;"/>
   </g>
   <g id="patch_5">
    <path d="M 38.482813 445.58 
L 347.919176 445.58 
" style="fill:none;stroke:#000000;stroke-linecap:square;stroke-linejoin:miter;stroke-width:0.8;"/>
   </g>
   <g id="patch_6">
    <path d="M 38.482813 10.7 
L 347.919176 10.7 
" style="fill:none;stroke:#000000;stroke-linecap:square;stroke-linejoin:miter;stroke-width:0.8;"/>
   </g>
  </g>
  <g id="axes_2">
   <g id="patch_7">
    <path d="M 409.806449 445.58 
L 719.242813 445.58 
L 719.242813 10.7 
L 409.806449 10.7 
z
" style="fill:#ffffff;"/>
   </g>
   <g id="matplotlib.axis_3">
    <g id="xtick_7">
     <g id="line2d_18">
      <g>
       <use style="stroke:#000000;stroke-width:0.8;" x="423.871738" xlink:href="#mfc952e6623" y="445.58"/>
      </g>
     </g>
     <g id="text_16">
      <!-- 0 -->
      <g transform="translate(420.690488 460.178437)scale(0.1 -0.1)">
       <use xlink:href="#DejaVuSans-30"/>
      </g>
     </g>
    </g>
    <g id="xtick_8">
     <g id="line2d_19">
      <g>
       <use style="stroke:#000000;stroke-width:0.8;" x="480.358844" xlink:href="#mfc952e6623" y="445.58"/>
      </g>
     </g>
     <g id="text_17">
      <!-- 1 -->
      <g transform="translate(477.177594 460.178437)scale(0.1 -0.1)">
       <use xlink:href="#DejaVuSans-31"/>
      </g>
     </g>
    </g>
    <g id="xtick_9">
     <g id="line2d_20">
      <g>
       <use style="stroke:#000000;stroke-width:0.8;" x="536.845949" xlink:href="#mfc952e6623" y="445.58"/>
      </g>
     </g>
     <g id="text_18">
      <!-- 2 -->
      <g transform="translate(533.664699 460.178437)scale(0.1 -0.1)">
       <use xlink:href="#DejaVuSans-32"/>
      </g>
     </g>
    </g>
    <g id="xtick_10">
     <g id="line2d_21">
      <g>
       <use style="stroke:#000000;stroke-width:0.8;" x="593.333054" xlink:href="#mfc952e6623" y="445.58"/>
      </g>
     </g>
     <g id="text_19">
      <!-- 3 -->
      <g transform="translate(590.151804 460.178437)scale(0.1 -0.1)">
       <use xlink:href="#DejaVuSans-33"/>
      </g>
     </g>
    </g>
    <g id="xtick_11">
     <g id="line2d_22">
      <g>
       <use style="stroke:#000000;stroke-width:0.8;" x="649.82016" xlink:href="#mfc952e6623" y="445.58"/>
      </g>
     </g>
     <g id="text_20">
      <!-- 4 -->
      <g transform="translate(646.63891 460.178437)scale(0.1 -0.1)">
       <use xlink:href="#DejaVuSans-34"/>
      </g>
     </g>
    </g>
    <g id="xtick_12">
     <g id="line2d_23">
      <g>
       <use style="stroke:#000000;stroke-width:0.8;" x="706.307265" xlink:href="#mfc952e6623" y="445.58"/>
      </g>
     </g>
     <g id="text_21">
      <!-- 5 -->
      <g transform="translate(703.126015 460.178437)scale(0.1 -0.1)">
       <use xlink:href="#DejaVuSans-35"/>
      </g>
     </g>
    </g>
   </g>
   <g id="matplotlib.axis_4">
    <g id="ytick_10">
     <g id="line2d_24">
      <g>
       <use style="stroke:#000000;stroke-width:0.8;" x="409.806449" xlink:href="#mc31ee8b4f6" y="425.812727"/>
      </g>
     </g>
     <g id="text_22">
      <!-- −1.00 -->
      <g transform="translate(372.161136 429.611946)scale(0.1 -0.1)">
       <use xlink:href="#DejaVuSans-2212"/>
       <use x="83.789062" xlink:href="#DejaVuSans-31"/>
       <use x="147.412109" xlink:href="#DejaVuSans-2e"/>
       <use x="179.199219" xlink:href="#DejaVuSans-30"/>
       <use x="242.822266" xlink:href="#DejaVuSans-30"/>
      </g>
     </g>
    </g>
    <g id="ytick_11">
     <g id="line2d_25">
      <g>
       <use style="stroke:#000000;stroke-width:0.8;" x="409.806449" xlink:href="#mc31ee8b4f6" y="376.394545"/>
      </g>
     </g>
     <g id="text_23">
      <!-- −0.75 -->
      <defs>
       <path d="M 8.203125 72.90625 
L 55.078125 72.90625 
L 55.078125 68.703125 
L 28.609375 0 
L 18.3125 0 
L 43.21875 64.59375 
L 8.203125 64.59375 
z
" id="DejaVuSans-37"/>
      </defs>
      <g transform="translate(372.161136 380.193764)scale(0.1 -0.1)">
       <use xlink:href="#DejaVuSans-2212"/>
       <use x="83.789062" xlink:href="#DejaVuSans-30"/>
       <use x="147.412109" xlink:href="#DejaVuSans-2e"/>
       <use x="179.199219" xlink:href="#DejaVuSans-37"/>
       <use x="242.822266" xlink:href="#DejaVuSans-35"/>
      </g>
     </g>
    </g>
    <g id="ytick_12">
     <g id="line2d_26">
      <g>
       <use style="stroke:#000000;stroke-width:0.8;" x="409.806449" xlink:href="#mc31ee8b4f6" y="326.976364"/>
      </g>
     </g>
     <g id="text_24">
      <!-- −0.50 -->
      <g transform="translate(372.161136 330.775582)scale(0.1 -0.1)">
       <use xlink:href="#DejaVuSans-2212"/>
       <use x="83.789062" xlink:href="#DejaVuSans-30"/>
       <use x="147.412109" xlink:href="#DejaVuSans-2e"/>
       <use x="179.199219" xlink:href="#DejaVuSans-35"/>
       <use x="242.822266" xlink:href="#DejaVuSans-30"/>
      </g>
     </g>
    </g>
    <g id="ytick_13">
     <g id="line2d_27">
      <g>
       <use style="stroke:#000000;stroke-width:0.8;" x="409.806449" xlink:href="#mc31ee8b4f6" y="277.558182"/>
      </g>
     </g>
     <g id="text_25">
      <!-- −0.25 -->
      <g transform="translate(372.161136 281.357401)scale(0.1 -0.1)">
       <use xlink:href="#DejaVuSans-2212"/>
       <use x="83.789062" xlink:href="#DejaVuSans-30"/>
       <use x="147.412109" xlink:href="#DejaVuSans-2e"/>
       <use x="179.199219" xlink:href="#DejaVuSans-32"/>
       <use x="242.822266" xlink:href="#DejaVuSans-35"/>
      </g>
     </g>
    </g>
    <g id="ytick_14">
     <g id="line2d_28">
      <g>
       <use style="stroke:#000000;stroke-width:0.8;" x="409.806449" xlink:href="#mc31ee8b4f6" y="228.14"/>
      </g>
     </g>
     <g id="text_26">
      <!-- 0.00 -->
      <g transform="translate(380.540824 231.939219)scale(0.1 -0.1)">
       <use xlink:href="#DejaVuSans-30"/>
       <use x="63.623047" xlink:href="#DejaVuSans-2e"/>
       <use x="95.410156" xlink:href="#DejaVuSans-30"/>
       <use x="159.033203" xlink:href="#DejaVuSans-30"/>
      </g>
     </g>
    </g>
    <g id="ytick_15">
     <g id="line2d_29">
      <g>
       <use style="stroke:#000000;stroke-width:0.8;" x="409.806449" xlink:href="#mc31ee8b4f6" y="178.721818"/>
      </g>
     </g>
     <g id="text_27">
      <!-- 0.25 -->
      <g transform="translate(380.540824 182.521037)scale(0.1 -0.1)">
       <use xlink:href="#DejaVuSans-30"/>
       <use x="63.623047" xlink:href="#DejaVuSans-2e"/>
       <use x="95.410156" xlink:href="#DejaVuSans-32"/>
       <use x="159.033203" xlink:href="#DejaVuSans-35"/>
      </g>
     </g>
    </g>
    <g id="ytick_16">
     <g id="line2d_30">
      <g>
       <use style="stroke:#000000;stroke-width:0.8;" x="409.806449" xlink:href="#mc31ee8b4f6" y="129.303636"/>
      </g>
     </g>
     <g id="text_28">
      <!-- 0.50 -->
      <g transform="translate(380.540824 133.102855)scale(0.1 -0.1)">
       <use xlink:href="#DejaVuSans-30"/>
       <use x="63.623047" xlink:href="#DejaVuSans-2e"/>
       <use x="95.410156" xlink:href="#DejaVuSans-35"/>
       <use x="159.033203" xlink:href="#DejaVuSans-30"/>
      </g>
     </g>
    </g>
    <g id="ytick_17">
     <g id="line2d_31">
      <g>
       <use style="stroke:#000000;stroke-width:0.8;" x="409.806449" xlink:href="#mc31ee8b4f6" y="79.885455"/>
      </g>
     </g>
     <g id="text_29">
      <!-- 0.75 -->
      <g transform="translate(380.540824 83.684673)scale(0.1 -0.1)">
       <use xlink:href="#DejaVuSans-30"/>
       <use x="63.623047" xlink:href="#DejaVuSans-2e"/>
       <use x="95.410156" xlink:href="#DejaVuSans-37"/>
       <use x="159.033203" xlink:href="#DejaVuSans-35"/>
      </g>
     </g>
    </g>
    <g id="ytick_18">
     <g id="line2d_32">
      <g>
       <use style="stroke:#000000;stroke-width:0.8;" x="409.806449" xlink:href="#mc31ee8b4f6" y="30.467273"/>
      </g>
     </g>
     <g id="text_30">
      <!-- 1.00 -->
      <g transform="translate(380.540824 34.266491)scale(0.1 -0.1)">
       <use xlink:href="#DejaVuSans-31"/>
       <use x="63.623047" xlink:href="#DejaVuSans-2e"/>
       <use x="95.410156" xlink:href="#DejaVuSans-30"/>
       <use x="159.033203" xlink:href="#DejaVuSans-30"/>
      </g>
     </g>
    </g>
   </g>
   <g id="line2d_33">
    <path clip-path="url(#p53bac0fb95)" d="M 423.871738 30.467273 
L 425.00148 32.025981 
L 426.131222 36.677525 
L 427.260964 44.348546 
L 428.390707 54.918069 
L 429.520449 68.219404 
L 430.650191 84.042783 
L 431.779933 102.138662 
L 434.039417 143.975046 
L 436.298901 191.099825 
L 441.947612 312.304954 
L 444.207096 354.141338 
L 445.336838 372.237217 
L 446.46658 388.060596 
L 447.596322 401.361931 
L 448.726065 411.931454 
L 449.855807 419.602475 
L 450.985549 424.254019 
L 452.115291 425.812727 
L 453.245033 424.254019 
L 454.374775 419.602475 
L 455.504517 411.931454 
L 456.634259 401.361931 
L 457.764001 388.060596 
L 458.893743 372.237217 
L 460.023486 354.141338 
L 462.28297 312.304954 
L 464.542454 265.180175 
L 470.191165 143.975046 
L 472.450649 102.138662 
L 473.580391 84.042783 
L 474.710133 68.219404 
L 475.839875 54.918069 
L 476.969617 44.348546 
L 478.099359 36.677525 
L 479.229101 32.025981 
L 480.358844 30.467273 
L 481.488586 32.025981 
L 482.618328 36.677525 
L 483.74807 44.348546 
L 484.877812 54.918069 
L 486.007554 68.219404 
L 487.137296 84.042783 
L 488.267038 102.138662 
L 490.526523 143.975046 
L 492.786007 191.099825 
L 498.434717 312.304954 
L 500.694202 354.141338 
L 501.823944 372.237217 
L 502.953686 388.060596 
L 504.083428 401.361931 
L 505.21317 411.931454 
L 506.342912 419.602475 
L 507.472654 424.254019 
L 508.602396 425.812727 
L 509.732138 424.254019 
L 510.861881 419.602475 
L 511.991623 411.931454 
L 513.121365 401.361931 
L 514.251107 388.060596 
L 515.380849 372.237217 
L 516.510591 354.141338 
L 518.770075 312.304954 
L 521.029559 265.180175 
L 526.67827 143.975046 
L 528.937754 102.138662 
L 530.067496 84.042783 
L 531.197238 68.219404 
L 532.326981 54.918069 
L 533.456723 44.348546 
L 534.586465 36.677525 
L 535.716207 32.025981 
L 536.845949 30.467273 
L 537.975691 32.025981 
L 539.105433 36.677525 
L 540.235175 44.348546 
L 541.364917 54.918069 
L 542.49466 68.219404 
L 543.624402 84.042783 
L 544.754144 102.138662 
L 547.013628 143.975046 
L 549.273112 191.099825 
L 554.921823 312.304954 
L 557.181307 354.141338 
L 558.311049 372.237217 
L 559.440791 388.060596 
L 560.570533 401.361931 
L 561.700275 411.931454 
L 562.830018 419.602475 
L 563.95976 424.254019 
L 565.089502 425.812727 
L 566.219244 424.254019 
L 567.348986 419.602475 
L 568.478728 411.931454 
L 569.60847 401.361931 
L 570.738212 388.060596 
L 571.867954 372.237217 
L 572.997696 354.141338 
L 575.257181 312.304954 
L 577.516665 265.180175 
L 583.165375 143.975046 
L 585.42486 102.138662 
L 586.554602 84.042783 
L 587.684344 68.219404 
L 588.814086 54.918069 
L 589.943828 44.348546 
L 591.07357 36.677525 
L 592.203312 32.025981 
L 593.333054 30.467273 
L 594.462797 32.025981 
L 595.592539 36.677525 
L 596.722281 44.348546 
L 597.852023 54.918069 
L 598.981765 68.219404 
L 600.111507 84.042783 
L 601.241249 102.138662 
L 603.500733 143.975046 
L 605.760218 191.099825 
L 611.408928 312.304954 
L 613.668412 354.141338 
L 614.798155 372.237217 
L 615.927897 388.060596 
L 617.057639 401.361931 
L 618.187381 411.931454 
L 619.317123 419.602475 
L 620.446865 424.254019 
L 621.576607 425.812727 
L 622.706349 424.254019 
L 623.836091 419.602475 
L 624.965834 411.931454 
L 626.095576 401.361931 
L 627.225318 388.060596 
L 628.35506 372.237217 
L 629.484802 354.141338 
L 631.744286 312.304954 
L 634.00377 265.180175 
L 639.652481 143.975046 
L 641.911965 102.138662 
L 643.041707 84.042783 
L 644.171449 68.219404 
L 645.301191 54.918069 
L 646.430934 44.348546 
L 647.560676 36.677525 
L 648.690418 32.025981 
L 649.82016 30.467273 
L 650.949902 32.025981 
L 652.079644 36.677525 
L 653.209386 44.348546 
L 654.339128 54.918069 
L 655.46887 68.219404 
L 656.598613 84.042783 
L 657.728355 102.138662 
L 659.987839 143.975046 
L 662.247323 191.099825 
L 667.896034 312.304954 
L 670.155518 354.141338 
L 671.28526 372.237217 
L 672.415002 388.060596 
L 673.544744 401.361931 
L 674.674486 411.931454 
L 675.804228 419.602475 
L 676.933971 424.254019 
L 678.063713 425.812727 
L 679.193455 424.254019 
L 680.323197 419.602475 
L 681.452939 411.931454 
L 682.582681 401.361931 
L 683.712423 388.060596 
L 684.842165 372.237217 
L 685.971907 354.141338 
L 688.231392 312.304954 
L 690.490876 265.180175 
L 696.139586 143.975046 
L 698.399071 102.138662 
L 699.528813 84.042783 
L 700.658555 68.219404 
L 701.788297 54.918069 
L 702.918039 44.348546 
L 704.047781 36.677525 
L 705.177523 32.025981 
L 705.177523 32.025981 
" style="fill:none;stroke:#ff0000;stroke-dasharray:5.55,2.4;stroke-dashoffset:0;stroke-width:1.5;"/>
   </g>
   <g id="patch_8">
    <path d="M 409.806449 445.58 
L 409.806449 10.7 
" style="fill:none;stroke:#000000;stroke-linecap:square;stroke-linejoin:miter;stroke-width:0.8;"/>
   </g>
   <g id="patch_9">
    <path d="M 719.242813 445.58 
L 719.242813 10.7 
" style="fill:none;stroke:#000000;stroke-linecap:square;stroke-linejoin:miter;stroke-width:0.8;"/>
   </g>
   <g id="patch_10">
    <path d="M 409.806449 445.58 
L 719.242813 445.58 
" style="fill:none;stroke:#000000;stroke-linecap:square;stroke-linejoin:miter;stroke-width:0.8;"/>
   </g>
   <g id="patch_11">
    <path d="M 409.806449 10.7 
L 719.242813 10.7 
" style="fill:none;stroke:#000000;stroke-linecap:square;stroke-linejoin:miter;stroke-width:0.8;"/>
   </g>
  </g>
 </g>
 <defs>
  <clipPath id="p1855f4d043">
   <rect height="434.88" width="309.436364" x="38.482813" y="10.7"/>
  </clipPath>
  <clipPath id="p53bac0fb95">
   <rect height="434.88" width="309.436364" x="409.806449" y="10.7"/>
  </clipPath>
 </defs>
</svg>
