<?xml version="1.0" encoding="utf-8" standalone="no"?>
<!DOCTYPE svg PUBLIC "-//W3C//DTD SVG 1.1//EN"
  "http://www.w3.org/Graphics/SVG/1.1/DTD/svg11.dtd">
<!-- Created with matplotlib (http://matplotlib.org/) -->
<svg height="252pt" version="1.1" viewBox="0 0 383 252" width="383pt" xmlns="http://www.w3.org/2000/svg" xmlns:xlink="http://www.w3.org/1999/xlink">
 <defs>
  <style type="text/css">
*{stroke-linecap:butt;stroke-linejoin:round;}
  </style>
 </defs>
 <g id="figure_1">
  <g id="patch_1">
   <path d="M -0 252.018125 
L 383.982812 252.018125 
L 383.982812 0 
L -0 0 
z
" style="fill:none;"/>
  </g>
  <g id="axes_1">
   <g id="patch_2">
    <path d="M 38.482813 228.14 
L 190.664631 228.14 
L 190.664631 10.7 
L 38.482813 10.7 
z
" style="fill:#ffffff;"/>
   </g>
   <g id="matplotlib.axis_1">
    <g id="xtick_1">
     <g id="line2d_1">
      <defs>
       <path d="M 0 0 
L 0 3.5 
" id="m63d6286ccd" style="stroke:#000000;stroke-width:0.8;"/>
      </defs>
      <g>
       <use style="stroke:#000000;stroke-width:0.8;" x="45.400168" xlink:href="#m63d6286ccd" y="228.14"/>
      </g>
     </g>
     <g id="text_1">
      <!-- 0 -->
      <defs>
       <path d="M 31.78125 66.40625 
Q 24.171875 66.40625 20.328125 58.90625 
Q 16.5 51.421875 16.5 36.375 
Q 16.5 21.390625 20.328125 13.890625 
Q 24.171875 6.390625 31.78125 6.390625 
Q 39.453125 6.390625 43.28125 13.890625 
Q 47.125 21.390625 47.125 36.375 
Q 47.125 51.421875 43.28125 58.90625 
Q 39.453125 66.40625 31.78125 66.40625 
z
M 31.78125 74.21875 
Q 44.046875 74.21875 50.515625 64.515625 
Q 56.984375 54.828125 56.984375 36.375 
Q 56.984375 17.96875 50.515625 8.265625 
Q 44.046875 -1.421875 31.78125 -1.421875 
Q 19.53125 -1.421875 13.0625 8.265625 
Q 6.59375 17.96875 6.59375 36.375 
Q 6.59375 54.828125 13.0625 64.515625 
Q 19.53125 74.21875 31.78125 74.21875 
z
" id="DejaVuSans-30"/>
      </defs>
      <g transform="translate(42.218918 242.738437)scale(0.1 -0.1)">
       <use xlink:href="#DejaVuSans-30"/>
      </g>
     </g>
    </g>
    <g id="xtick_2">
     <g id="line2d_2">
      <g>
       <use style="stroke:#000000;stroke-width:0.8;" x="100.961255" xlink:href="#m63d6286ccd" y="228.14"/>
      </g>
     </g>
     <g id="text_2">
      <!-- 2 -->
      <defs>
       <path d="M 19.1875 8.296875 
L 53.609375 8.296875 
L 53.609375 0 
L 7.328125 0 
L 7.328125 8.296875 
Q 12.9375 14.109375 22.625 23.890625 
Q 32.328125 33.6875 34.8125 36.53125 
Q 39.546875 41.84375 41.421875 45.53125 
Q 43.3125 49.21875 43.3125 52.78125 
Q 43.3125 58.59375 39.234375 62.25 
Q 35.15625 65.921875 28.609375 65.921875 
Q 23.96875 65.921875 18.8125 64.3125 
Q 13.671875 62.703125 7.8125 59.421875 
L 7.8125 69.390625 
Q 13.765625 71.78125 18.9375 73 
Q 24.125 74.21875 28.421875 74.21875 
Q 39.75 74.21875 46.484375 68.546875 
Q 53.21875 62.890625 53.21875 53.421875 
Q 53.21875 48.921875 51.53125 44.890625 
Q 49.859375 40.875 45.40625 35.40625 
Q 44.1875 33.984375 37.640625 27.21875 
Q 31.109375 20.453125 19.1875 8.296875 
z
" id="DejaVuSans-32"/>
      </defs>
      <g transform="translate(97.780005 242.738437)scale(0.1 -0.1)">
       <use xlink:href="#DejaVuSans-32"/>
      </g>
     </g>
    </g>
    <g id="xtick_3">
     <g id="line2d_3">
      <g>
       <use style="stroke:#000000;stroke-width:0.8;" x="156.522343" xlink:href="#m63d6286ccd" y="228.14"/>
      </g>
     </g>
     <g id="text_3">
      <!-- 4 -->
      <defs>
       <path d="M 37.796875 64.3125 
L 12.890625 25.390625 
L 37.796875 25.390625 
z
M 35.203125 72.90625 
L 47.609375 72.90625 
L 47.609375 25.390625 
L 58.015625 25.390625 
L 58.015625 17.1875 
L 47.609375 17.1875 
L 47.609375 0 
L 37.796875 0 
L 37.796875 17.1875 
L 4.890625 17.1875 
L 4.890625 26.703125 
z
" id="DejaVuSans-34"/>
      </defs>
      <g transform="translate(153.341093 242.738437)scale(0.1 -0.1)">
       <use xlink:href="#DejaVuSans-34"/>
      </g>
     </g>
    </g>
   </g>
   <g id="matplotlib.axis_2">
    <g id="ytick_1">
     <g id="line2d_4">
      <defs>
       <path d="M 0 0 
L -3.5 0 
" id="m004838c703" style="stroke:#000000;stroke-width:0.8;"/>
      </defs>
      <g>
       <use style="stroke:#000000;stroke-width:0.8;" x="38.482813" xlink:href="#m004838c703" y="216.553374"/>
      </g>
     </g>
     <g id="text_4">
      <!-- −0.6 -->
      <defs>
       <path d="M 10.59375 35.5 
L 73.1875 35.5 
L 73.1875 27.203125 
L 10.59375 27.203125 
z
" id="DejaVuSans-2212"/>
       <path d="M 10.6875 12.40625 
L 21 12.40625 
L 21 0 
L 10.6875 0 
z
" id="DejaVuSans-2e"/>
       <path d="M 33.015625 40.375 
Q 26.375 40.375 22.484375 35.828125 
Q 18.609375 31.296875 18.609375 23.390625 
Q 18.609375 15.53125 22.484375 10.953125 
Q 26.375 6.390625 33.015625 6.390625 
Q 39.65625 6.390625 43.53125 10.953125 
Q 47.40625 15.53125 47.40625 23.390625 
Q 47.40625 31.296875 43.53125 35.828125 
Q 39.65625 40.375 33.015625 40.375 
z
M 52.59375 71.296875 
L 52.59375 62.3125 
Q 48.875 64.0625 45.09375 64.984375 
Q 41.3125 65.921875 37.59375 65.921875 
Q 27.828125 65.921875 22.671875 59.328125 
Q 17.53125 52.734375 16.796875 39.40625 
Q 19.671875 43.65625 24.015625 45.921875 
Q 28.375 48.1875 33.59375 48.1875 
Q 44.578125 48.1875 50.953125 41.515625 
Q 57.328125 34.859375 57.328125 23.390625 
Q 57.328125 12.15625 50.6875 5.359375 
Q 44.046875 -1.421875 33.015625 -1.421875 
Q 20.359375 -1.421875 13.671875 8.265625 
Q 6.984375 17.96875 6.984375 36.375 
Q 6.984375 53.65625 15.1875 63.9375 
Q 23.390625 74.21875 37.203125 74.21875 
Q 40.921875 74.21875 44.703125 73.484375 
Q 48.484375 72.75 52.59375 71.296875 
z
" id="DejaVuSans-36"/>
      </defs>
      <g transform="translate(7.2 220.352593)scale(0.1 -0.1)">
       <use xlink:href="#DejaVuSans-2212"/>
       <use x="83.789062" xlink:href="#DejaVuSans-30"/>
       <use x="147.412109" xlink:href="#DejaVuSans-2e"/>
       <use x="179.199219" xlink:href="#DejaVuSans-36"/>
      </g>
     </g>
    </g>
    <g id="ytick_2">
     <g id="line2d_5">
      <g>
       <use style="stroke:#000000;stroke-width:0.8;" x="38.482813" xlink:href="#m004838c703" y="192.057157"/>
      </g>
     </g>
     <g id="text_5">
      <!-- −0.4 -->
      <g transform="translate(7.2 195.856376)scale(0.1 -0.1)">
       <use xlink:href="#DejaVuSans-2212"/>
       <use x="83.789062" xlink:href="#DejaVuSans-30"/>
       <use x="147.412109" xlink:href="#DejaVuSans-2e"/>
       <use x="179.199219" xlink:href="#DejaVuSans-34"/>
      </g>
     </g>
    </g>
    <g id="ytick_3">
     <g id="line2d_6">
      <g>
       <use style="stroke:#000000;stroke-width:0.8;" x="38.482813" xlink:href="#m004838c703" y="167.56094"/>
      </g>
     </g>
     <g id="text_6">
      <!-- −0.2 -->
      <g transform="translate(7.2 171.360159)scale(0.1 -0.1)">
       <use xlink:href="#DejaVuSans-2212"/>
       <use x="83.789062" xlink:href="#DejaVuSans-30"/>
       <use x="147.412109" xlink:href="#DejaVuSans-2e"/>
       <use x="179.199219" xlink:href="#DejaVuSans-32"/>
      </g>
     </g>
    </g>
    <g id="ytick_4">
     <g id="line2d_7">
      <g>
       <use style="stroke:#000000;stroke-width:0.8;" x="38.482813" xlink:href="#m004838c703" y="143.064723"/>
      </g>
     </g>
     <g id="text_7">
      <!-- 0.0 -->
      <g transform="translate(15.579688 146.863941)scale(0.1 -0.1)">
       <use xlink:href="#DejaVuSans-30"/>
       <use x="63.623047" xlink:href="#DejaVuSans-2e"/>
       <use x="95.410156" xlink:href="#DejaVuSans-30"/>
      </g>
     </g>
    </g>
    <g id="ytick_5">
     <g id="line2d_8">
      <g>
       <use style="stroke:#000000;stroke-width:0.8;" x="38.482813" xlink:href="#m004838c703" y="118.568505"/>
      </g>
     </g>
     <g id="text_8">
      <!-- 0.2 -->
      <g transform="translate(15.579688 122.367724)scale(0.1 -0.1)">
       <use xlink:href="#DejaVuSans-30"/>
       <use x="63.623047" xlink:href="#DejaVuSans-2e"/>
       <use x="95.410156" xlink:href="#DejaVuSans-32"/>
      </g>
     </g>
    </g>
    <g id="ytick_6">
     <g id="line2d_9">
      <g>
       <use style="stroke:#000000;stroke-width:0.8;" x="38.482813" xlink:href="#m004838c703" y="94.072288"/>
      </g>
     </g>
     <g id="text_9">
      <!-- 0.4 -->
      <g transform="translate(15.579688 97.871507)scale(0.1 -0.1)">
       <use xlink:href="#DejaVuSans-30"/>
       <use x="63.623047" xlink:href="#DejaVuSans-2e"/>
       <use x="95.410156" xlink:href="#DejaVuSans-34"/>
      </g>
     </g>
    </g>
    <g id="ytick_7">
     <g id="line2d_10">
      <g>
       <use style="stroke:#000000;stroke-width:0.8;" x="38.482813" xlink:href="#m004838c703" y="69.576071"/>
      </g>
     </g>
     <g id="text_10">
      <!-- 0.6 -->
      <g transform="translate(15.579688 73.37529)scale(0.1 -0.1)">
       <use xlink:href="#DejaVuSans-30"/>
       <use x="63.623047" xlink:href="#DejaVuSans-2e"/>
       <use x="95.410156" xlink:href="#DejaVuSans-36"/>
      </g>
     </g>
    </g>
    <g id="ytick_8">
     <g id="line2d_11">
      <g>
       <use style="stroke:#000000;stroke-width:0.8;" x="38.482813" xlink:href="#m004838c703" y="45.079854"/>
      </g>
     </g>
     <g id="text_11">
      <!-- 0.8 -->
      <defs>
       <path d="M 31.78125 34.625 
Q 24.75 34.625 20.71875 30.859375 
Q 16.703125 27.09375 16.703125 20.515625 
Q 16.703125 13.921875 20.71875 10.15625 
Q 24.75 6.390625 31.78125 6.390625 
Q 38.8125 6.390625 42.859375 10.171875 
Q 46.921875 13.96875 46.921875 20.515625 
Q 46.921875 27.09375 42.890625 30.859375 
Q 38.875 34.625 31.78125 34.625 
z
M 21.921875 38.8125 
Q 15.578125 40.375 12.03125 44.71875 
Q 8.5 49.078125 8.5 55.328125 
Q 8.5 64.0625 14.71875 69.140625 
Q 20.953125 74.21875 31.78125 74.21875 
Q 42.671875 74.21875 48.875 69.140625 
Q 55.078125 64.0625 55.078125 55.328125 
Q 55.078125 49.078125 51.53125 44.71875 
Q 48 40.375 41.703125 38.8125 
Q 48.828125 37.15625 52.796875 32.3125 
Q 56.78125 27.484375 56.78125 20.515625 
Q 56.78125 9.90625 50.3125 4.234375 
Q 43.84375 -1.421875 31.78125 -1.421875 
Q 19.734375 -1.421875 13.25 4.234375 
Q 6.78125 9.90625 6.78125 20.515625 
Q 6.78125 27.484375 10.78125 32.3125 
Q 14.796875 37.15625 21.921875 38.8125 
z
M 18.3125 54.390625 
Q 18.3125 48.734375 21.84375 45.5625 
Q 25.390625 42.390625 31.78125 42.390625 
Q 38.140625 42.390625 41.71875 45.5625 
Q 45.3125 48.734375 45.3125 54.390625 
Q 45.3125 60.0625 41.71875 63.234375 
Q 38.140625 66.40625 31.78125 66.40625 
Q 25.390625 66.40625 21.84375 63.234375 
Q 18.3125 60.0625 18.3125 54.390625 
z
" id="DejaVuSans-38"/>
      </defs>
      <g transform="translate(15.579688 48.879072)scale(0.1 -0.1)">
       <use xlink:href="#DejaVuSans-30"/>
       <use x="63.623047" xlink:href="#DejaVuSans-2e"/>
       <use x="95.410156" xlink:href="#DejaVuSans-38"/>
      </g>
     </g>
    </g>
    <g id="ytick_9">
     <g id="line2d_12">
      <g>
       <use style="stroke:#000000;stroke-width:0.8;" x="38.482813" xlink:href="#m004838c703" y="20.583636"/>
      </g>
     </g>
     <g id="text_12">
      <!-- 1.0 -->
      <defs>
       <path d="M 12.40625 8.296875 
L 28.515625 8.296875 
L 28.515625 63.921875 
L 10.984375 60.40625 
L 10.984375 69.390625 
L 28.421875 72.90625 
L 38.28125 72.90625 
L 38.28125 8.296875 
L 54.390625 8.296875 
L 54.390625 0 
L 12.40625 0 
z
" id="DejaVuSans-31"/>
      </defs>
      <g transform="translate(15.579688 24.382855)scale(0.1 -0.1)">
       <use xlink:href="#DejaVuSans-31"/>
       <use x="63.623047" xlink:href="#DejaVuSans-2e"/>
       <use x="95.410156" xlink:href="#DejaVuSans-30"/>
      </g>
     </g>
    </g>
   </g>
   <g id="line2d_13">
    <defs>
     <path d="M 0 3 
C 0.795609 3 1.55874 2.683901 2.12132 2.12132 
C 2.683901 1.55874 3 0.795609 3 0 
C 3 -0.795609 2.683901 -1.55874 2.12132 -2.12132 
C 1.55874 -2.683901 0.795609 -3 0 -3 
C -0.795609 -3 -1.55874 -2.683901 -2.12132 -2.12132 
C -2.683901 -1.55874 -3 -0.795609 -3 0 
C -3 0.795609 -2.683901 1.55874 -2.12132 2.12132 
C -1.55874 2.683901 -0.795609 3 0 3 
z
" id="m69f64c44b0" style="stroke:#0000ff;"/>
    </defs>
    <g clip-path="url(#p68e118cb48)">
     <use style="fill:#0000ff;stroke:#0000ff;" x="45.400168" xlink:href="#m69f64c44b0" y="20.583636"/>
     <use style="fill:#0000ff;stroke:#0000ff;" x="48.178222" xlink:href="#m69f64c44b0" y="53.405034"/>
     <use style="fill:#0000ff;stroke:#0000ff;" x="50.956277" xlink:href="#m69f64c44b0" y="112.076798"/>
     <use style="fill:#0000ff;stroke:#0000ff;" x="53.734331" xlink:href="#m69f64c44b0" y="171.103757"/>
     <use style="fill:#0000ff;stroke:#0000ff;" x="56.512385" xlink:href="#m69f64c44b0" y="209.486254"/>
     <use style="fill:#0000ff;stroke:#0000ff;" x="59.29044" xlink:href="#m69f64c44b0" y="217.353257"/>
     <use style="fill:#0000ff;stroke:#0000ff;" x="62.068494" xlink:href="#m69f64c44b0" y="197.446073"/>
     <use style="fill:#0000ff;stroke:#0000ff;" x="64.846548" xlink:href="#m69f64c44b0" y="161.859849"/>
     <use style="fill:#0000ff;stroke:#0000ff;" x="67.624603" xlink:href="#m69f64c44b0" y="126.058189"/>
     <use style="fill:#0000ff;stroke:#0000ff;" x="70.402657" xlink:href="#m69f64c44b0" y="102.778028"/>
     <use style="fill:#0000ff;stroke:#0000ff;" x="73.180712" xlink:href="#m69f64c44b0" y="98.006449"/>
     <use style="fill:#0000ff;stroke:#0000ff;" x="75.958766" xlink:href="#m69f64c44b0" y="110.080767"/>
     <use style="fill:#0000ff;stroke:#0000ff;" x="78.73682" xlink:href="#m69f64c44b0" y="131.664902"/>
     <use style="fill:#0000ff;stroke:#0000ff;" x="81.514875" xlink:href="#m69f64c44b0" y="153.379707"/>
     <use style="fill:#0000ff;stroke:#0000ff;" x="84.292929" xlink:href="#m69f64c44b0" y="167.499838"/>
     <use style="fill:#0000ff;stroke:#0000ff;" x="87.070983" xlink:href="#m69f64c44b0" y="170.393947"/>
     <use style="fill:#0000ff;stroke:#0000ff;" x="89.849038" xlink:href="#m69f64c44b0" y="163.070503"/>
     <use style="fill:#0000ff;stroke:#0000ff;" x="92.627092" xlink:href="#m69f64c44b0" y="149.979063"/>
     <use style="fill:#0000ff;stroke:#0000ff;" x="95.405146" xlink:href="#m69f64c44b0" y="136.808368"/>
     <use style="fill:#0000ff;stroke:#0000ff;" x="98.183201" xlink:href="#m69f64c44b0" y="128.244076"/>
     <use style="fill:#0000ff;stroke:#0000ff;" x="100.961255" xlink:href="#m69f64c44b0" y="126.48871"/>
     <use style="fill:#0000ff;stroke:#0000ff;" x="103.73931" xlink:href="#m69f64c44b0" y="130.930603"/>
     <use style="fill:#0000ff;stroke:#0000ff;" x="106.517364" xlink:href="#m69f64c44b0" y="138.870963"/>
     <use style="fill:#0000ff;stroke:#0000ff;" x="109.295418" xlink:href="#m69f64c44b0" y="146.859393"/>
     <use style="fill:#0000ff;stroke:#0000ff;" x="112.073473" xlink:href="#m69f64c44b0" y="152.053899"/>
     <use style="fill:#0000ff;stroke:#0000ff;" x="114.851527" xlink:href="#m69f64c44b0" y="153.118582"/>
     <use style="fill:#0000ff;stroke:#0000ff;" x="117.629581" xlink:href="#m69f64c44b0" y="150.424438"/>
     <use style="fill:#0000ff;stroke:#0000ff;" x="120.407636" xlink:href="#m69f64c44b0" y="145.608366"/>
     <use style="fill:#0000ff;stroke:#0000ff;" x="123.18569" xlink:href="#m69f64c44b0" y="140.763139"/>
     <use style="fill:#0000ff;stroke:#0000ff;" x="125.963744" xlink:href="#m69f64c44b0" y="137.612511"/>
     <use style="fill:#0000ff;stroke:#0000ff;" x="128.741799" xlink:href="#m69f64c44b0" y="136.966748"/>
     <use style="fill:#0000ff;stroke:#0000ff;" x="131.519853" xlink:href="#m69f64c44b0" y="138.60083"/>
     <use style="fill:#0000ff;stroke:#0000ff;" x="134.297908" xlink:href="#m69f64c44b0" y="141.521925"/>
     <use style="fill:#0000ff;stroke:#0000ff;" x="137.075962" xlink:href="#m69f64c44b0" y="144.460704"/>
     <use style="fill:#0000ff;stroke:#0000ff;" x="139.854016" xlink:href="#m69f64c44b0" y="146.371656"/>
     <use style="fill:#0000ff;stroke:#0000ff;" x="142.632071" xlink:href="#m69f64c44b0" y="146.763331"/>
     <use style="fill:#0000ff;stroke:#0000ff;" x="145.410125" xlink:href="#m69f64c44b0" y="145.772211"/>
     <use style="fill:#0000ff;stroke:#0000ff;" x="148.188179" xlink:href="#m69f64c44b0" y="144.000477"/>
     <use style="fill:#0000ff;stroke:#0000ff;" x="150.966234" xlink:href="#m69f64c44b0" y="142.218017"/>
     <use style="fill:#0000ff;stroke:#0000ff;" x="153.744288" xlink:href="#m69f64c44b0" y="141.058966"/>
     <use style="fill:#0000ff;stroke:#0000ff;" x="156.522343" xlink:href="#m69f64c44b0" y="140.821403"/>
     <use style="fill:#0000ff;stroke:#0000ff;" x="159.300397" xlink:href="#m69f64c44b0" y="141.422548"/>
     <use style="fill:#0000ff;stroke:#0000ff;" x="162.078451" xlink:href="#m69f64c44b0" y="142.497159"/>
     <use style="fill:#0000ff;stroke:#0000ff;" x="164.856506" xlink:href="#m69f64c44b0" y="143.578275"/>
     <use style="fill:#0000ff;stroke:#0000ff;" x="167.63456" xlink:href="#m69f64c44b0" y="144.281275"/>
     <use style="fill:#0000ff;stroke:#0000ff;" x="170.412614" xlink:href="#m69f64c44b0" y="144.425365"/>
     <use style="fill:#0000ff;stroke:#0000ff;" x="173.190669" xlink:href="#m69f64c44b0" y="144.060752"/>
     <use style="fill:#0000ff;stroke:#0000ff;" x="175.968723" xlink:href="#m69f64c44b0" y="143.408967"/>
     <use style="fill:#0000ff;stroke:#0000ff;" x="178.746777" xlink:href="#m69f64c44b0" y="142.753237"/>
     <use style="fill:#0000ff;stroke:#0000ff;" x="181.524832" xlink:href="#m69f64c44b0" y="142.326846"/>
    </g>
   </g>
   <g id="line2d_14">
    <path clip-path="url(#p68e118cb48)" d="M 45.400168 20.583636 
L 45.955779 23.9556 
L 46.51139 29.083276 
L 47.067 35.816546 
L 48.178222 53.405034 
L 49.289444 75.191854 
L 54.289942 180.93333 
L 55.401164 197.533976 
L 56.512385 209.486254 
L 57.067996 213.586211 
L 57.623607 216.407612 
L 58.179218 217.95587 
L 58.734829 218.256364 
L 59.29044 217.353257 
L 59.846051 215.308057 
L 60.401661 212.197965 
L 60.957272 208.11403 
L 62.068494 197.446073 
L 63.179716 184.231699 
L 68.180214 120.096251 
L 69.291435 110.027451 
L 70.402657 102.778028 
L 70.958268 100.291278 
L 71.513879 98.580011 
L 72.06949 97.640946 
L 72.625101 97.458687 
L 73.180712 98.006449 
L 73.736322 99.246925 
L 74.291933 101.133292 
L 74.847544 103.610323 
L 75.958766 110.080767 
L 77.069988 118.09569 
L 82.070486 156.995805 
L 83.181707 163.102841 
L 84.292929 167.499838 
L 84.84854 169.008128 
L 85.404151 170.046064 
L 85.959762 170.615636 
L 86.515372 170.726181 
L 87.070983 170.393947 
L 87.626594 169.64156 
L 88.182205 168.497421 
L 88.737816 166.995026 
L 89.849038 163.070503 
L 90.960259 158.209207 
L 95.960757 134.615094 
L 97.071979 130.910989 
L 98.183201 128.244076 
L 98.738812 127.329252 
L 99.294423 126.699712 
L 99.850033 126.354249 
L 100.405644 126.2872 
L 100.961255 126.48871 
L 101.516866 126.945056 
L 102.072477 127.639011 
L 103.183699 129.655839 
L 104.29492 132.347714 
L 105.961753 137.169617 
L 108.739807 145.412213 
L 109.851029 148.189681 
L 110.962251 150.436334 
L 112.073473 152.053899 
L 112.629084 152.608768 
L 113.184694 152.990603 
L 113.740305 153.200137 
L 114.295916 153.240805 
L 114.851527 153.118582 
L 115.407138 152.841795 
L 116.51836 151.868189 
L 117.629581 150.424438 
L 119.296414 147.65533 
L 123.18569 140.763139 
L 124.296912 139.230325 
L 125.408134 138.052738 
L 126.519355 137.275966 
L 127.630577 136.917283 
L 128.741799 136.966748 
L 129.853021 137.389921 
L 130.964242 138.13187 
L 132.075464 139.122156 
L 134.297908 141.521925 
L 136.520351 143.928316 
L 138.187184 145.390402 
L 139.298405 146.104645 
L 140.409627 146.575781 
L 141.520849 146.793333 
L 142.632071 146.763331 
L 143.743292 146.506664 
L 144.854514 146.056649 
L 146.521347 145.114306 
L 151.521845 141.92119 
L 153.188677 141.220916 
L 154.85551 140.849959 
L 155.966732 140.794132 
L 157.633564 140.97708 
L 159.300397 141.422548 
L 162.078451 142.497159 
L 165.412116 143.75831 
L 167.078949 144.183048 
L 168.745782 144.408044 
L 170.412614 144.425365 
L 172.635058 144.165391 
L 175.413112 143.548622 
L 179.857999 142.545793 
L 182.080443 142.2813 
L 183.747275 142.229419 
L 183.747275 142.229419 
" style="fill:none;stroke:#008000;stroke-linecap:square;stroke-width:1.5;"/>
   </g>
   <g id="patch_3">
    <path d="M 38.482813 228.14 
L 38.482813 10.7 
" style="fill:none;stroke:#000000;stroke-linecap:square;stroke-linejoin:miter;stroke-width:0.8;"/>
   </g>
   <g id="patch_4">
    <path d="M 190.664631 228.14 
L 190.664631 10.7 
" style="fill:none;stroke:#000000;stroke-linecap:square;stroke-linejoin:miter;stroke-width:0.8;"/>
   </g>
   <g id="patch_5">
    <path d="M 38.482813 228.14 
L 190.664631 228.14 
" style="fill:none;stroke:#000000;stroke-linecap:square;stroke-linejoin:miter;stroke-width:0.8;"/>
   </g>
   <g id="patch_6">
    <path d="M 38.482813 10.7 
L 190.664631 10.7 
" style="fill:none;stroke:#000000;stroke-linecap:square;stroke-linejoin:miter;stroke-width:0.8;"/>
   </g>
  </g>
  <g id="axes_2">
   <g id="patch_7">
    <path d="M 221.100994 228.14 
L 373.282812 228.14 
L 373.282812 10.7 
L 221.100994 10.7 
z
" style="fill:#ffffff;"/>
   </g>
   <g id="matplotlib.axis_3">
    <g id="xtick_4">
     <g id="line2d_15">
      <g>
       <use style="stroke:#000000;stroke-width:0.8;" x="228.01835" xlink:href="#m63d6286ccd" y="228.14"/>
      </g>
     </g>
     <g id="text_13">
      <!-- 0 -->
      <g transform="translate(224.8371 242.738437)scale(0.1 -0.1)">
       <use xlink:href="#DejaVuSans-30"/>
      </g>
     </g>
    </g>
    <g id="xtick_5">
     <g id="line2d_16">
      <g>
       <use style="stroke:#000000;stroke-width:0.8;" x="283.579437" xlink:href="#m63d6286ccd" y="228.14"/>
      </g>
     </g>
     <g id="text_14">
      <!-- 2 -->
      <g transform="translate(280.398187 242.738437)scale(0.1 -0.1)">
       <use xlink:href="#DejaVuSans-32"/>
      </g>
     </g>
    </g>
    <g id="xtick_6">
     <g id="line2d_17">
      <g>
       <use style="stroke:#000000;stroke-width:0.8;" x="339.140524" xlink:href="#m63d6286ccd" y="228.14"/>
      </g>
     </g>
     <g id="text_15">
      <!-- 4 -->
      <g transform="translate(335.959274 242.738437)scale(0.1 -0.1)">
       <use xlink:href="#DejaVuSans-34"/>
      </g>
     </g>
    </g>
   </g>
   <g id="matplotlib.axis_4">
    <g id="ytick_10">
     <g id="line2d_18">
      <g>
       <use style="stroke:#000000;stroke-width:0.8;" x="221.100994" xlink:href="#m004838c703" y="218.256364"/>
      </g>
     </g>
     <g id="text_16">
      <!-- −1.00 -->
      <g transform="translate(183.455682 222.055582)scale(0.1 -0.1)">
       <use xlink:href="#DejaVuSans-2212"/>
       <use x="83.789062" xlink:href="#DejaVuSans-31"/>
       <use x="147.412109" xlink:href="#DejaVuSans-2e"/>
       <use x="179.199219" xlink:href="#DejaVuSans-30"/>
       <use x="242.822266" xlink:href="#DejaVuSans-30"/>
      </g>
     </g>
    </g>
    <g id="ytick_11">
     <g id="line2d_19">
      <g>
       <use style="stroke:#000000;stroke-width:0.8;" x="221.100994" xlink:href="#m004838c703" y="193.547273"/>
      </g>
     </g>
     <g id="text_17">
      <!-- −0.75 -->
      <defs>
       <path d="M 8.203125 72.90625 
L 55.078125 72.90625 
L 55.078125 68.703125 
L 28.609375 0 
L 18.3125 0 
L 43.21875 64.59375 
L 8.203125 64.59375 
z
" id="DejaVuSans-37"/>
       <path d="M 10.796875 72.90625 
L 49.515625 72.90625 
L 49.515625 64.59375 
L 19.828125 64.59375 
L 19.828125 46.734375 
Q 21.96875 47.46875 24.109375 47.828125 
Q 26.265625 48.1875 28.421875 48.1875 
Q 40.625 48.1875 47.75 41.5 
Q 54.890625 34.8125 54.890625 23.390625 
Q 54.890625 11.625 47.5625 5.09375 
Q 40.234375 -1.421875 26.90625 -1.421875 
Q 22.3125 -1.421875 17.546875 -0.640625 
Q 12.796875 0.140625 7.71875 1.703125 
L 7.71875 11.625 
Q 12.109375 9.234375 16.796875 8.0625 
Q 21.484375 6.890625 26.703125 6.890625 
Q 35.15625 6.890625 40.078125 11.328125 
Q 45.015625 15.765625 45.015625 23.390625 
Q 45.015625 31 40.078125 35.4375 
Q 35.15625 39.890625 26.703125 39.890625 
Q 22.75 39.890625 18.8125 39.015625 
Q 14.890625 38.140625 10.796875 36.28125 
z
" id="DejaVuSans-35"/>
      </defs>
      <g transform="translate(183.455682 197.346491)scale(0.1 -0.1)">
       <use xlink:href="#DejaVuSans-2212"/>
       <use x="83.789062" xlink:href="#DejaVuSans-30"/>
       <use x="147.412109" xlink:href="#DejaVuSans-2e"/>
       <use x="179.199219" xlink:href="#DejaVuSans-37"/>
       <use x="242.822266" xlink:href="#DejaVuSans-35"/>
      </g>
     </g>
    </g>
    <g id="ytick_12">
     <g id="line2d_20">
      <g>
       <use style="stroke:#000000;stroke-width:0.8;" x="221.100994" xlink:href="#m004838c703" y="168.838182"/>
      </g>
     </g>
     <g id="text_18">
      <!-- −0.50 -->
      <g transform="translate(183.455682 172.637401)scale(0.1 -0.1)">
       <use xlink:href="#DejaVuSans-2212"/>
       <use x="83.789062" xlink:href="#DejaVuSans-30"/>
       <use x="147.412109" xlink:href="#DejaVuSans-2e"/>
       <use x="179.199219" xlink:href="#DejaVuSans-35"/>
       <use x="242.822266" xlink:href="#DejaVuSans-30"/>
      </g>
     </g>
    </g>
    <g id="ytick_13">
     <g id="line2d_21">
      <g>
       <use style="stroke:#000000;stroke-width:0.8;" x="221.100994" xlink:href="#m004838c703" y="144.129091"/>
      </g>
     </g>
     <g id="text_19">
      <!-- −0.25 -->
      <g transform="translate(183.455682 147.92831)scale(0.1 -0.1)">
       <use xlink:href="#DejaVuSans-2212"/>
       <use x="83.789062" xlink:href="#DejaVuSans-30"/>
       <use x="147.412109" xlink:href="#DejaVuSans-2e"/>
       <use x="179.199219" xlink:href="#DejaVuSans-32"/>
       <use x="242.822266" xlink:href="#DejaVuSans-35"/>
      </g>
     </g>
    </g>
    <g id="ytick_14">
     <g id="line2d_22">
      <g>
       <use style="stroke:#000000;stroke-width:0.8;" x="221.100994" xlink:href="#m004838c703" y="119.42"/>
      </g>
     </g>
     <g id="text_20">
      <!-- 0.00 -->
      <g transform="translate(191.835369 123.219219)scale(0.1 -0.1)">
       <use xlink:href="#DejaVuSans-30"/>
       <use x="63.623047" xlink:href="#DejaVuSans-2e"/>
       <use x="95.410156" xlink:href="#DejaVuSans-30"/>
       <use x="159.033203" xlink:href="#DejaVuSans-30"/>
      </g>
     </g>
    </g>
    <g id="ytick_15">
     <g id="line2d_23">
      <g>
       <use style="stroke:#000000;stroke-width:0.8;" x="221.100994" xlink:href="#m004838c703" y="94.710909"/>
      </g>
     </g>
     <g id="text_21">
      <!-- 0.25 -->
      <g transform="translate(191.835369 98.510128)scale(0.1 -0.1)">
       <use xlink:href="#DejaVuSans-30"/>
       <use x="63.623047" xlink:href="#DejaVuSans-2e"/>
       <use x="95.410156" xlink:href="#DejaVuSans-32"/>
       <use x="159.033203" xlink:href="#DejaVuSans-35"/>
      </g>
     </g>
    </g>
    <g id="ytick_16">
     <g id="line2d_24">
      <g>
       <use style="stroke:#000000;stroke-width:0.8;" x="221.100994" xlink:href="#m004838c703" y="70.001818"/>
      </g>
     </g>
     <g id="text_22">
      <!-- 0.50 -->
      <g transform="translate(191.835369 73.801037)scale(0.1 -0.1)">
       <use xlink:href="#DejaVuSans-30"/>
       <use x="63.623047" xlink:href="#DejaVuSans-2e"/>
       <use x="95.410156" xlink:href="#DejaVuSans-35"/>
       <use x="159.033203" xlink:href="#DejaVuSans-30"/>
      </g>
     </g>
    </g>
    <g id="ytick_17">
     <g id="line2d_25">
      <g>
       <use style="stroke:#000000;stroke-width:0.8;" x="221.100994" xlink:href="#m004838c703" y="45.292727"/>
      </g>
     </g>
     <g id="text_23">
      <!-- 0.75 -->
      <g transform="translate(191.835369 49.091946)scale(0.1 -0.1)">
       <use xlink:href="#DejaVuSans-30"/>
       <use x="63.623047" xlink:href="#DejaVuSans-2e"/>
       <use x="95.410156" xlink:href="#DejaVuSans-37"/>
       <use x="159.033203" xlink:href="#DejaVuSans-35"/>
      </g>
     </g>
    </g>
    <g id="ytick_18">
     <g id="line2d_26">
      <g>
       <use style="stroke:#000000;stroke-width:0.8;" x="221.100994" xlink:href="#m004838c703" y="20.583636"/>
      </g>
     </g>
     <g id="text_24">
      <!-- 1.00 -->
      <g transform="translate(191.835369 24.382855)scale(0.1 -0.1)">
       <use xlink:href="#DejaVuSans-31"/>
       <use x="63.623047" xlink:href="#DejaVuSans-2e"/>
       <use x="95.410156" xlink:href="#DejaVuSans-30"/>
       <use x="159.033203" xlink:href="#DejaVuSans-30"/>
      </g>
     </g>
    </g>
   </g>
   <g id="line2d_27">
    <path clip-path="url(#p6c48a964f5)" d="M 228.01835 20.583636 
L 228.573961 21.362991 
L 229.129571 23.688762 
L 229.685182 27.524273 
L 230.240793 32.809034 
L 231.352015 47.371392 
L 232.463237 66.460828 
L 234.130069 100.899912 
L 237.463735 172.379172 
L 238.574956 191.468608 
L 239.686178 206.030966 
L 240.241789 211.315727 
L 240.7974 215.151238 
L 241.353011 217.477009 
L 241.908622 218.256364 
L 242.464232 217.477009 
L 243.019843 215.151238 
L 243.575454 211.315727 
L 244.131065 206.030966 
L 245.242287 191.468608 
L 246.353509 172.379172 
L 248.020341 137.940088 
L 251.354006 66.460828 
L 252.465228 47.371392 
L 253.57645 32.809034 
L 254.132061 27.524273 
L 254.687672 23.688762 
L 255.243282 21.362991 
L 255.798893 20.583636 
L 256.354504 21.362991 
L 256.910115 23.688762 
L 257.465726 27.524273 
L 258.021337 32.809034 
L 259.132559 47.371392 
L 260.24378 66.460828 
L 261.910613 100.899912 
L 265.244278 172.379172 
L 266.3555 191.468608 
L 267.466722 206.030966 
L 268.022333 211.315727 
L 268.577943 215.151238 
L 269.133554 217.477009 
L 269.689165 218.256364 
L 270.244776 217.477009 
L 270.800387 215.151238 
L 271.355998 211.315727 
L 271.911609 206.030966 
L 273.02283 191.468608 
L 274.134052 172.379172 
L 275.800885 137.940088 
L 279.13455 66.460828 
L 280.245772 47.371392 
L 281.356994 32.809034 
L 281.912604 27.524273 
L 282.468215 23.688762 
L 283.023826 21.362991 
L 283.579437 20.583636 
L 284.135048 21.362991 
L 284.690659 23.688762 
L 285.24627 27.524273 
L 285.801881 32.809034 
L 286.913102 47.371392 
L 288.024324 66.460828 
L 289.691157 100.899912 
L 293.024822 172.379172 
L 294.136044 191.468608 
L 295.247265 206.030966 
L 295.802876 211.315727 
L 296.358487 215.151238 
L 296.914098 217.477009 
L 297.469709 218.256364 
L 298.02532 217.477009 
L 298.580931 215.151238 
L 299.136541 211.315727 
L 299.692152 206.030966 
L 300.803374 191.468608 
L 301.914596 172.379172 
L 303.581428 137.940088 
L 306.915094 66.460828 
L 308.026315 47.371392 
L 309.137537 32.809034 
L 309.693148 27.524273 
L 310.248759 23.688762 
L 310.80437 21.362991 
L 311.359981 20.583636 
L 311.915592 21.362991 
L 312.471202 23.688762 
L 313.026813 27.524273 
L 313.582424 32.809034 
L 314.693646 47.371392 
L 315.804868 66.460828 
L 317.4717 100.899912 
L 320.805366 172.379172 
L 321.916587 191.468608 
L 323.027809 206.030966 
L 323.58342 211.315727 
L 324.139031 215.151238 
L 324.694642 217.477009 
L 325.250253 218.256364 
L 325.805863 217.477009 
L 326.361474 215.151238 
L 326.917085 211.315727 
L 327.472696 206.030966 
L 328.583918 191.468608 
L 329.695139 172.379172 
L 331.361972 137.940088 
L 334.695637 66.460828 
L 335.806859 47.371392 
L 336.918081 32.809034 
L 337.473692 27.524273 
L 338.029303 23.688762 
L 338.584913 21.362991 
L 339.140524 20.583636 
L 339.696135 21.362991 
L 340.251746 23.688762 
L 340.807357 27.524273 
L 341.362968 32.809034 
L 342.47419 47.371392 
L 343.585411 66.460828 
L 345.252244 100.899912 
L 348.585909 172.379172 
L 349.697131 191.468608 
L 350.808353 206.030966 
L 351.363964 211.315727 
L 351.919574 215.151238 
L 352.475185 217.477009 
L 353.030796 218.256364 
L 353.586407 217.477009 
L 354.142018 215.151238 
L 354.697629 211.315727 
L 355.25324 206.030966 
L 356.364461 191.468608 
L 357.475683 172.379172 
L 359.142516 137.940088 
L 362.476181 66.460828 
L 363.587403 47.371392 
L 364.698625 32.809034 
L 365.254235 27.524273 
L 365.809846 23.688762 
L 366.365457 21.362991 
L 366.365457 21.362991 
" style="fill:none;stroke:#ff0000;stroke-dasharray:5.55,2.4;stroke-dashoffset:0;stroke-width:1.5;"/>
   </g>
   <g id="patch_8">
    <path d="M 221.100994 228.14 
L 221.100994 10.7 
" style="fill:none;stroke:#000000;stroke-linecap:square;stroke-linejoin:miter;stroke-width:0.8;"/>
   </g>
   <g id="patch_9">
    <path d="M 373.282812 228.14 
L 373.282812 10.7 
" style="fill:none;stroke:#000000;stroke-linecap:square;stroke-linejoin:miter;stroke-width:0.8;"/>
   </g>
   <g id="patch_10">
    <path d="M 221.100994 228.14 
L 373.282812 228.14 
" style="fill:none;stroke:#000000;stroke-linecap:square;stroke-linejoin:miter;stroke-width:0.8;"/>
   </g>
   <g id="patch_11">
    <path d="M 221.100994 10.7 
L 373.282812 10.7 
" style="fill:none;stroke:#000000;stroke-linecap:square;stroke-linejoin:miter;stroke-width:0.8;"/>
   </g>
  </g>
 </g>
 <defs>
  <clipPath id="p68e118cb48">
   <rect height="217.44" width="152.181818" x="38.482813" y="10.7"/>
  </clipPath>
  <clipPath id="p6c48a964f5">
   <rect height="217.44" width="152.181818" x="221.100994" y="10.7"/>
  </clipPath>
 </defs>
</svg>
