<?xml version="1.0" encoding="utf-8" standalone="no"?>
<!DOCTYPE svg PUBLIC "-//W3C//DTD SVG 1.1//EN"
  "http://www.w3.org/Graphics/SVG/1.1/DTD/svg11.dtd">
<!-- Created with matplotlib (http://matplotlib.org/) -->
<svg height="252pt" version="1.1" viewBox="0 0 383 252" width="383pt" xmlns="http://www.w3.org/2000/svg" xmlns:xlink="http://www.w3.org/1999/xlink">
 <defs>
  <style type="text/css">
*{stroke-linecap:butt;stroke-linejoin:round;}
  </style>
 </defs>
 <g id="figure_1">
  <g id="patch_1">
   <path d="M -0 252.018125 
L 383.982812 252.018125 
L 383.982812 0 
L -0 0 
z
" style="fill:none;"/>
  </g>
  <g id="axes_1">
   <g id="patch_2">
    <path d="M 38.482813 109.536364 
L 373.282813 109.536364 
L 373.282813 10.7 
L 38.482813 10.7 
z
" style="fill:#ffffff;"/>
   </g>
   <g id="matplotlib.axis_1">
    <g id="xtick_1">
     <g id="line2d_1">
      <defs>
       <path d="M 0 0 
L 0 3.5 
" id="mdd89415092" style="stroke:#000000;stroke-width:0.8;"/>
      </defs>
      <g>
       <use style="stroke:#000000;stroke-width:0.8;" x="53.700994" xlink:href="#mdd89415092" y="109.536364"/>
      </g>
     </g>
     <g id="text_1">
      <!-- 0 -->
      <defs>
       <path d="M 31.78125 66.40625 
Q 24.171875 66.40625 20.328125 58.90625 
Q 16.5 51.421875 16.5 36.375 
Q 16.5 21.390625 20.328125 13.890625 
Q 24.171875 6.390625 31.78125 6.390625 
Q 39.453125 6.390625 43.28125 13.890625 
Q 47.125 21.390625 47.125 36.375 
Q 47.125 51.421875 43.28125 58.90625 
Q 39.453125 66.40625 31.78125 66.40625 
z
M 31.78125 74.21875 
Q 44.046875 74.21875 50.515625 64.515625 
Q 56.984375 54.828125 56.984375 36.375 
Q 56.984375 17.96875 50.515625 8.265625 
Q 44.046875 -1.421875 31.78125 -1.421875 
Q 19.53125 -1.421875 13.0625 8.265625 
Q 6.59375 17.96875 6.59375 36.375 
Q 6.59375 54.828125 13.0625 64.515625 
Q 19.53125 74.21875 31.78125 74.21875 
z
" id="DejaVuSans-30"/>
      </defs>
      <g transform="translate(50.519744 124.134801)scale(0.1 -0.1)">
       <use xlink:href="#DejaVuSans-30"/>
      </g>
     </g>
    </g>
    <g id="xtick_2">
     <g id="line2d_2">
      <g>
       <use style="stroke:#000000;stroke-width:0.8;" x="114.81819" xlink:href="#mdd89415092" y="109.536364"/>
      </g>
     </g>
     <g id="text_2">
      <!-- 1 -->
      <defs>
       <path d="M 12.40625 8.296875 
L 28.515625 8.296875 
L 28.515625 63.921875 
L 10.984375 60.40625 
L 10.984375 69.390625 
L 28.421875 72.90625 
L 38.28125 72.90625 
L 38.28125 8.296875 
L 54.390625 8.296875 
L 54.390625 0 
L 12.40625 0 
z
" id="DejaVuSans-31"/>
      </defs>
      <g transform="translate(111.63694 124.134801)scale(0.1 -0.1)">
       <use xlink:href="#DejaVuSans-31"/>
      </g>
     </g>
    </g>
    <g id="xtick_3">
     <g id="line2d_3">
      <g>
       <use style="stroke:#000000;stroke-width:0.8;" x="175.935386" xlink:href="#mdd89415092" y="109.536364"/>
      </g>
     </g>
     <g id="text_3">
      <!-- 2 -->
      <defs>
       <path d="M 19.1875 8.296875 
L 53.609375 8.296875 
L 53.609375 0 
L 7.328125 0 
L 7.328125 8.296875 
Q 12.9375 14.109375 22.625 23.890625 
Q 32.328125 33.6875 34.8125 36.53125 
Q 39.546875 41.84375 41.421875 45.53125 
Q 43.3125 49.21875 43.3125 52.78125 
Q 43.3125 58.59375 39.234375 62.25 
Q 35.15625 65.921875 28.609375 65.921875 
Q 23.96875 65.921875 18.8125 64.3125 
Q 13.671875 62.703125 7.8125 59.421875 
L 7.8125 69.390625 
Q 13.765625 71.78125 18.9375 73 
Q 24.125 74.21875 28.421875 74.21875 
Q 39.75 74.21875 46.484375 68.546875 
Q 53.21875 62.890625 53.21875 53.421875 
Q 53.21875 48.921875 51.53125 44.890625 
Q 49.859375 40.875 45.40625 35.40625 
Q 44.1875 33.984375 37.640625 27.21875 
Q 31.109375 20.453125 19.1875 8.296875 
z
" id="DejaVuSans-32"/>
      </defs>
      <g transform="translate(172.754136 124.134801)scale(0.1 -0.1)">
       <use xlink:href="#DejaVuSans-32"/>
      </g>
     </g>
    </g>
    <g id="xtick_4">
     <g id="line2d_4">
      <g>
       <use style="stroke:#000000;stroke-width:0.8;" x="237.052582" xlink:href="#mdd89415092" y="109.536364"/>
      </g>
     </g>
     <g id="text_4">
      <!-- 3 -->
      <defs>
       <path d="M 40.578125 39.3125 
Q 47.65625 37.796875 51.625 33 
Q 55.609375 28.21875 55.609375 21.1875 
Q 55.609375 10.40625 48.1875 4.484375 
Q 40.765625 -1.421875 27.09375 -1.421875 
Q 22.515625 -1.421875 17.65625 -0.515625 
Q 12.796875 0.390625 7.625 2.203125 
L 7.625 11.71875 
Q 11.71875 9.328125 16.59375 8.109375 
Q 21.484375 6.890625 26.8125 6.890625 
Q 36.078125 6.890625 40.9375 10.546875 
Q 45.796875 14.203125 45.796875 21.1875 
Q 45.796875 27.640625 41.28125 31.265625 
Q 36.765625 34.90625 28.71875 34.90625 
L 20.21875 34.90625 
L 20.21875 43.015625 
L 29.109375 43.015625 
Q 36.375 43.015625 40.234375 45.921875 
Q 44.09375 48.828125 44.09375 54.296875 
Q 44.09375 59.90625 40.109375 62.90625 
Q 36.140625 65.921875 28.71875 65.921875 
Q 24.65625 65.921875 20.015625 65.03125 
Q 15.375 64.15625 9.8125 62.3125 
L 9.8125 71.09375 
Q 15.4375 72.65625 20.34375 73.4375 
Q 25.25 74.21875 29.59375 74.21875 
Q 40.828125 74.21875 47.359375 69.109375 
Q 53.90625 64.015625 53.90625 55.328125 
Q 53.90625 49.265625 50.4375 45.09375 
Q 46.96875 40.921875 40.578125 39.3125 
z
" id="DejaVuSans-33"/>
      </defs>
      <g transform="translate(233.871332 124.134801)scale(0.1 -0.1)">
       <use xlink:href="#DejaVuSans-33"/>
      </g>
     </g>
    </g>
    <g id="xtick_5">
     <g id="line2d_5">
      <g>
       <use style="stroke:#000000;stroke-width:0.8;" x="298.169779" xlink:href="#mdd89415092" y="109.536364"/>
      </g>
     </g>
     <g id="text_5">
      <!-- 4 -->
      <defs>
       <path d="M 37.796875 64.3125 
L 12.890625 25.390625 
L 37.796875 25.390625 
z
M 35.203125 72.90625 
L 47.609375 72.90625 
L 47.609375 25.390625 
L 58.015625 25.390625 
L 58.015625 17.1875 
L 47.609375 17.1875 
L 47.609375 0 
L 37.796875 0 
L 37.796875 17.1875 
L 4.890625 17.1875 
L 4.890625 26.703125 
z
" id="DejaVuSans-34"/>
      </defs>
      <g transform="translate(294.988529 124.134801)scale(0.1 -0.1)">
       <use xlink:href="#DejaVuSans-34"/>
      </g>
     </g>
    </g>
    <g id="xtick_6">
     <g id="line2d_6">
      <g>
       <use style="stroke:#000000;stroke-width:0.8;" x="359.286975" xlink:href="#mdd89415092" y="109.536364"/>
      </g>
     </g>
     <g id="text_6">
      <!-- 5 -->
      <defs>
       <path d="M 10.796875 72.90625 
L 49.515625 72.90625 
L 49.515625 64.59375 
L 19.828125 64.59375 
L 19.828125 46.734375 
Q 21.96875 47.46875 24.109375 47.828125 
Q 26.265625 48.1875 28.421875 48.1875 
Q 40.625 48.1875 47.75 41.5 
Q 54.890625 34.8125 54.890625 23.390625 
Q 54.890625 11.625 47.5625 5.09375 
Q 40.234375 -1.421875 26.90625 -1.421875 
Q 22.3125 -1.421875 17.546875 -0.640625 
Q 12.796875 0.140625 7.71875 1.703125 
L 7.71875 11.625 
Q 12.109375 9.234375 16.796875 8.0625 
Q 21.484375 6.890625 26.703125 6.890625 
Q 35.15625 6.890625 40.078125 11.328125 
Q 45.015625 15.765625 45.015625 23.390625 
Q 45.015625 31 40.078125 35.4375 
Q 35.15625 39.890625 26.703125 39.890625 
Q 22.75 39.890625 18.8125 39.015625 
Q 14.890625 38.140625 10.796875 36.28125 
z
" id="DejaVuSans-35"/>
      </defs>
      <g transform="translate(356.105725 124.134801)scale(0.1 -0.1)">
       <use xlink:href="#DejaVuSans-35"/>
      </g>
     </g>
    </g>
   </g>
   <g id="matplotlib.axis_2">
    <g id="ytick_1">
     <g id="line2d_7">
      <defs>
       <path d="M 0 0 
L -3.5 0 
" id="m9b9c7d121b" style="stroke:#000000;stroke-width:0.8;"/>
      </defs>
      <g>
       <use style="stroke:#000000;stroke-width:0.8;" x="38.482813" xlink:href="#m9b9c7d121b" y="98.702394"/>
      </g>
     </g>
     <g id="text_7">
      <!-- −0.5 -->
      <defs>
       <path d="M 10.59375 35.5 
L 73.1875 35.5 
L 73.1875 27.203125 
L 10.59375 27.203125 
z
" id="DejaVuSans-2212"/>
       <path d="M 10.6875 12.40625 
L 21 12.40625 
L 21 0 
L 10.6875 0 
z
" id="DejaVuSans-2e"/>
      </defs>
      <g transform="translate(7.2 102.501612)scale(0.1 -0.1)">
       <use xlink:href="#DejaVuSans-2212"/>
       <use x="83.789062" xlink:href="#DejaVuSans-30"/>
       <use x="147.412109" xlink:href="#DejaVuSans-2e"/>
       <use x="179.199219" xlink:href="#DejaVuSans-35"/>
      </g>
     </g>
    </g>
    <g id="ytick_2">
     <g id="line2d_8">
      <g>
       <use style="stroke:#000000;stroke-width:0.8;" x="38.482813" xlink:href="#m9b9c7d121b" y="70.865783"/>
      </g>
     </g>
     <g id="text_8">
      <!-- 0.0 -->
      <g transform="translate(15.579688 74.665002)scale(0.1 -0.1)">
       <use xlink:href="#DejaVuSans-30"/>
       <use x="63.623047" xlink:href="#DejaVuSans-2e"/>
       <use x="95.410156" xlink:href="#DejaVuSans-30"/>
      </g>
     </g>
    </g>
    <g id="ytick_3">
     <g id="line2d_9">
      <g>
       <use style="stroke:#000000;stroke-width:0.8;" x="38.482813" xlink:href="#m9b9c7d121b" y="43.029172"/>
      </g>
     </g>
     <g id="text_9">
      <!-- 0.5 -->
      <g transform="translate(15.579688 46.828391)scale(0.1 -0.1)">
       <use xlink:href="#DejaVuSans-30"/>
       <use x="63.623047" xlink:href="#DejaVuSans-2e"/>
       <use x="95.410156" xlink:href="#DejaVuSans-35"/>
      </g>
     </g>
    </g>
    <g id="ytick_4">
     <g id="line2d_10">
      <g>
       <use style="stroke:#000000;stroke-width:0.8;" x="38.482813" xlink:href="#m9b9c7d121b" y="15.192562"/>
      </g>
     </g>
     <g id="text_10">
      <!-- 1.0 -->
      <g transform="translate(15.579688 18.991781)scale(0.1 -0.1)">
       <use xlink:href="#DejaVuSans-31"/>
       <use x="63.623047" xlink:href="#DejaVuSans-2e"/>
       <use x="95.410156" xlink:href="#DejaVuSans-30"/>
      </g>
     </g>
    </g>
   </g>
   <g id="line2d_11">
    <defs>
     <path d="M 0 3 
C 0.795609 3 1.55874 2.683901 2.12132 2.12132 
C 2.683901 1.55874 3 0.795609 3 0 
C 3 -0.795609 2.683901 -1.55874 2.12132 -2.12132 
C 1.55874 -2.683901 0.795609 -3 0 -3 
C -0.795609 -3 -1.55874 -2.683901 -2.12132 -2.12132 
C -2.683901 -1.55874 -3 -0.795609 -3 0 
C -3 0.795609 -2.683901 1.55874 -2.12132 2.12132 
C -1.55874 2.683901 -0.795609 3 0 3 
z
" id="m79903fc93c" style="stroke:#0000ff;"/>
    </defs>
    <g clip-path="url(#p484df71423)">
     <use style="fill:#0000ff;stroke:#0000ff;" x="53.700994" xlink:href="#m79903fc93c" y="15.192562"/>
     <use style="fill:#0000ff;stroke:#0000ff;" x="59.812714" xlink:href="#m79903fc93c" y="30.111379"/>
     <use style="fill:#0000ff;stroke:#0000ff;" x="65.924434" xlink:href="#m79903fc93c" y="56.780363"/>
     <use style="fill:#0000ff;stroke:#0000ff;" x="72.036153" xlink:href="#m79903fc93c" y="83.610799"/>
     <use style="fill:#0000ff;stroke:#0000ff;" x="78.147873" xlink:href="#m79903fc93c" y="101.057388"/>
     <use style="fill:#0000ff;stroke:#0000ff;" x="84.259592" xlink:href="#m79903fc93c" y="104.633298"/>
     <use style="fill:#0000ff;stroke:#0000ff;" x="90.371312" xlink:href="#m79903fc93c" y="95.584578"/>
     <use style="fill:#0000ff;stroke:#0000ff;" x="96.483032" xlink:href="#m79903fc93c" y="79.409022"/>
     <use style="fill:#0000ff;stroke:#0000ff;" x="102.594751" xlink:href="#m79903fc93c" y="63.13554"/>
     <use style="fill:#0000ff;stroke:#0000ff;" x="108.706471" xlink:href="#m79903fc93c" y="52.553649"/>
     <use style="fill:#0000ff;stroke:#0000ff;" x="114.81819" xlink:href="#m79903fc93c" y="50.38475"/>
     <use style="fill:#0000ff;stroke:#0000ff;" x="120.92991" xlink:href="#m79903fc93c" y="55.873076"/>
     <use style="fill:#0000ff;stroke:#0000ff;" x="127.04163" xlink:href="#m79903fc93c" y="65.684046"/>
     <use style="fill:#0000ff;stroke:#0000ff;" x="133.153349" xlink:href="#m79903fc93c" y="75.554412"/>
     <use style="fill:#0000ff;stroke:#0000ff;" x="139.265069" xlink:href="#m79903fc93c" y="81.972654"/>
     <use style="fill:#0000ff;stroke:#0000ff;" x="145.376788" xlink:href="#m79903fc93c" y="83.288158"/>
     <use style="fill:#0000ff;stroke:#0000ff;" x="151.488508" xlink:href="#m79903fc93c" y="79.95932"/>
     <use style="fill:#0000ff;stroke:#0000ff;" x="157.600228" xlink:href="#m79903fc93c" y="74.008665"/>
     <use style="fill:#0000ff;stroke:#0000ff;" x="163.711947" xlink:href="#m79903fc93c" y="68.021986"/>
     <use style="fill:#0000ff;stroke:#0000ff;" x="169.823667" xlink:href="#m79903fc93c" y="64.129125"/>
     <use style="fill:#0000ff;stroke:#0000ff;" x="175.935386" xlink:href="#m79903fc93c" y="63.331232"/>
     <use style="fill:#0000ff;stroke:#0000ff;" x="182.047106" xlink:href="#m79903fc93c" y="65.350274"/>
     <use style="fill:#0000ff;stroke:#0000ff;" x="188.158826" xlink:href="#m79903fc93c" y="68.959529"/>
     <use style="fill:#0000ff;stroke:#0000ff;" x="194.270545" xlink:href="#m79903fc93c" y="72.590633"/>
     <use style="fill:#0000ff;stroke:#0000ff;" x="200.382265" xlink:href="#m79903fc93c" y="74.951772"/>
     <use style="fill:#0000ff;stroke:#0000ff;" x="206.493984" xlink:href="#m79903fc93c" y="75.435719"/>
     <use style="fill:#0000ff;stroke:#0000ff;" x="212.605704" xlink:href="#m79903fc93c" y="74.211108"/>
     <use style="fill:#0000ff;stroke:#0000ff;" x="218.717424" xlink:href="#m79903fc93c" y="72.021985"/>
     <use style="fill:#0000ff;stroke:#0000ff;" x="224.829143" xlink:href="#m79903fc93c" y="69.819608"/>
     <use style="fill:#0000ff;stroke:#0000ff;" x="230.940863" xlink:href="#m79903fc93c" y="68.387505"/>
     <use style="fill:#0000ff;stroke:#0000ff;" x="237.052582" xlink:href="#m79903fc93c" y="68.093977"/>
     <use style="fill:#0000ff;stroke:#0000ff;" x="243.164302" xlink:href="#m79903fc93c" y="68.836741"/>
     <use style="fill:#0000ff;stroke:#0000ff;" x="249.276022" xlink:href="#m79903fc93c" y="70.164511"/>
     <use style="fill:#0000ff;stroke:#0000ff;" x="255.387741" xlink:href="#m79903fc93c" y="71.50032"/>
     <use style="fill:#0000ff;stroke:#0000ff;" x="261.499461" xlink:href="#m79903fc93c" y="72.368935"/>
     <use style="fill:#0000ff;stroke:#0000ff;" x="267.611181" xlink:href="#m79903fc93c" y="72.546969"/>
     <use style="fill:#0000ff;stroke:#0000ff;" x="273.7229" xlink:href="#m79903fc93c" y="72.096459"/>
     <use style="fill:#0000ff;stroke:#0000ff;" x="279.83462" xlink:href="#m79903fc93c" y="71.291126"/>
     <use style="fill:#0000ff;stroke:#0000ff;" x="285.946339" xlink:href="#m79903fc93c" y="70.480917"/>
     <use style="fill:#0000ff;stroke:#0000ff;" x="292.058059" xlink:href="#m79903fc93c" y="69.954076"/>
     <use style="fill:#0000ff;stroke:#0000ff;" x="298.169779" xlink:href="#m79903fc93c" y="69.846092"/>
     <use style="fill:#0000ff;stroke:#0000ff;" x="304.281498" xlink:href="#m79903fc93c" y="70.11934"/>
     <use style="fill:#0000ff;stroke:#0000ff;" x="310.393218" xlink:href="#m79903fc93c" y="70.6078"/>
     <use style="fill:#0000ff;stroke:#0000ff;" x="316.504937" xlink:href="#m79903fc93c" y="71.099216"/>
     <use style="fill:#0000ff;stroke:#0000ff;" x="322.616657" xlink:href="#m79903fc93c" y="71.418762"/>
     <use style="fill:#0000ff;stroke:#0000ff;" x="328.728377" xlink:href="#m79903fc93c" y="71.484257"/>
     <use style="fill:#0000ff;stroke:#0000ff;" x="334.840096" xlink:href="#m79903fc93c" y="71.318524"/>
     <use style="fill:#0000ff;stroke:#0000ff;" x="340.951816" xlink:href="#m79903fc93c" y="71.022258"/>
     <use style="fill:#0000ff;stroke:#0000ff;" x="347.063535" xlink:href="#m79903fc93c" y="70.724199"/>
     <use style="fill:#0000ff;stroke:#0000ff;" x="353.175255" xlink:href="#m79903fc93c" y="70.530385"/>
    </g>
   </g>
   <g id="line2d_12">
    <path clip-path="url(#p484df71423)" d="M 53.700994 15.192562 
L 54.923338 16.725273 
L 56.145682 19.056035 
L 57.368026 22.116612 
L 58.59037 25.829876 
L 59.812714 30.111379 
L 62.257402 40.014479 
L 65.924434 56.780363 
L 69.591465 73.561187 
L 72.036153 83.610799 
L 73.258497 88.078786 
L 74.480841 92.098748 
L 75.703185 95.624534 
L 76.925529 98.619636 
L 78.147873 101.057388 
L 79.370217 102.921005 
L 80.592561 104.20346 
L 81.814905 104.907213 
L 83.037248 105.043802 
L 84.259592 104.633298 
L 85.481936 103.703662 
L 86.70428 102.289984 
L 87.926624 100.43365 
L 89.148968 98.181441 
L 90.371312 95.584578 
L 92.816 89.578045 
L 96.483032 79.409022 
L 100.150063 69.230938 
L 102.594751 63.13554 
L 103.817095 60.425569 
L 105.039439 57.987338 
L 106.261783 55.848841 
L 107.484127 54.03222 
L 108.706471 52.553649 
L 109.928815 51.423308 
L 111.151159 50.64546 
L 112.373503 50.218612 
L 113.595846 50.135767 
L 114.81819 50.38475 
L 116.040534 50.948602 
L 117.262878 51.806042 
L 118.485222 52.931965 
L 119.707566 54.297999 
L 122.152254 57.624034 
L 124.596942 61.514113 
L 131.931005 73.766302 
L 134.375693 77.198093 
L 135.598037 78.676954 
L 136.820381 79.974019 
L 138.042725 81.075855 
L 139.265069 81.972654 
L 140.487413 82.65824 
L 141.709757 83.130029 
L 142.932101 83.388925 
L 144.154444 83.439173 
L 145.376788 83.288158 
L 146.599132 82.946164 
L 147.821476 82.4261 
L 149.04382 81.743193 
L 151.488508 79.95932 
L 153.933196 77.749639 
L 157.600228 74.008665 
L 161.267259 70.264357 
L 163.711947 68.021986 
L 166.156635 66.128068 
L 168.601323 64.673061 
L 169.823667 64.129125 
L 171.046011 63.713296 
L 172.268355 63.427142 
L 173.490699 63.270113 
L 174.713043 63.239636 
L 175.935386 63.331232 
L 178.380074 63.854096 
L 180.824762 64.770836 
L 183.26945 65.994416 
L 186.936482 68.18619 
L 193.048201 71.932824 
L 195.492889 73.19531 
L 197.937577 74.216516 
L 200.382265 74.951772 
L 202.826953 75.377547 
L 205.271641 75.491275 
L 207.716328 75.309907 
L 210.161016 74.867359 
L 212.605704 74.211108 
L 216.272736 72.952423 
L 224.829143 69.819608 
L 228.496175 68.833461 
L 230.940863 68.387505 
L 233.385551 68.12926 
L 235.830239 68.06028 
L 238.274926 68.170286 
L 241.941958 68.623577 
L 245.60899 69.329787 
L 257.832429 71.92291 
L 261.499461 72.368935 
L 265.166493 72.560606 
L 268.833524 72.500685 
L 272.500556 72.22575 
L 277.389932 71.633415 
L 287.168683 70.345995 
L 292.058059 69.954076 
L 296.947435 69.833696 
L 301.83681 69.972911 
L 307.94853 70.400191 
L 320.171969 71.319255 
L 326.283689 71.489274 
L 332.395408 71.407337 
L 340.951816 71.022258 
L 351.952911 70.557466 
L 358.064631 70.4861 
L 358.064631 70.4861 
" style="fill:none;stroke:#008000;stroke-linecap:square;stroke-width:1.5;"/>
   </g>
   <g id="patch_3">
    <path d="M 38.482813 109.536364 
L 38.482813 10.7 
" style="fill:none;stroke:#000000;stroke-linecap:square;stroke-linejoin:miter;stroke-width:0.8;"/>
   </g>
   <g id="patch_4">
    <path d="M 373.282813 109.536364 
L 373.282813 10.7 
" style="fill:none;stroke:#000000;stroke-linecap:square;stroke-linejoin:miter;stroke-width:0.8;"/>
   </g>
   <g id="patch_5">
    <path d="M 38.482813 109.536364 
L 373.282813 109.536364 
" style="fill:none;stroke:#000000;stroke-linecap:square;stroke-linejoin:miter;stroke-width:0.8;"/>
   </g>
   <g id="patch_6">
    <path d="M 38.482813 10.7 
L 373.282813 10.7 
" style="fill:none;stroke:#000000;stroke-linecap:square;stroke-linejoin:miter;stroke-width:0.8;"/>
   </g>
  </g>
  <g id="axes_2">
   <g id="patch_7">
    <path d="M 38.482813 228.14 
L 373.282813 228.14 
L 373.282813 129.303636 
L 38.482813 129.303636 
z
" style="fill:#ffffff;"/>
   </g>
   <g id="matplotlib.axis_3">
    <g id="xtick_7">
     <g id="line2d_13">
      <g>
       <use style="stroke:#000000;stroke-width:0.8;" x="53.700994" xlink:href="#mdd89415092" y="228.14"/>
      </g>
     </g>
     <g id="text_11">
      <!-- 0 -->
      <g transform="translate(50.519744 242.738437)scale(0.1 -0.1)">
       <use xlink:href="#DejaVuSans-30"/>
      </g>
     </g>
    </g>
    <g id="xtick_8">
     <g id="line2d_14">
      <g>
       <use style="stroke:#000000;stroke-width:0.8;" x="114.81819" xlink:href="#mdd89415092" y="228.14"/>
      </g>
     </g>
     <g id="text_12">
      <!-- 1 -->
      <g transform="translate(111.63694 242.738437)scale(0.1 -0.1)">
       <use xlink:href="#DejaVuSans-31"/>
      </g>
     </g>
    </g>
    <g id="xtick_9">
     <g id="line2d_15">
      <g>
       <use style="stroke:#000000;stroke-width:0.8;" x="175.935386" xlink:href="#mdd89415092" y="228.14"/>
      </g>
     </g>
     <g id="text_13">
      <!-- 2 -->
      <g transform="translate(172.754136 242.738437)scale(0.1 -0.1)">
       <use xlink:href="#DejaVuSans-32"/>
      </g>
     </g>
    </g>
    <g id="xtick_10">
     <g id="line2d_16">
      <g>
       <use style="stroke:#000000;stroke-width:0.8;" x="237.052582" xlink:href="#mdd89415092" y="228.14"/>
      </g>
     </g>
     <g id="text_14">
      <!-- 3 -->
      <g transform="translate(233.871332 242.738437)scale(0.1 -0.1)">
       <use xlink:href="#DejaVuSans-33"/>
      </g>
     </g>
    </g>
    <g id="xtick_11">
     <g id="line2d_17">
      <g>
       <use style="stroke:#000000;stroke-width:0.8;" x="298.169779" xlink:href="#mdd89415092" y="228.14"/>
      </g>
     </g>
     <g id="text_15">
      <!-- 4 -->
      <g transform="translate(294.988529 242.738437)scale(0.1 -0.1)">
       <use xlink:href="#DejaVuSans-34"/>
      </g>
     </g>
    </g>
    <g id="xtick_12">
     <g id="line2d_18">
      <g>
       <use style="stroke:#000000;stroke-width:0.8;" x="359.286975" xlink:href="#mdd89415092" y="228.14"/>
      </g>
     </g>
     <g id="text_16">
      <!-- 5 -->
      <g transform="translate(356.105725 242.738437)scale(0.1 -0.1)">
       <use xlink:href="#DejaVuSans-35"/>
      </g>
     </g>
    </g>
   </g>
   <g id="matplotlib.axis_4">
    <g id="ytick_5">
     <g id="line2d_19">
      <g>
       <use style="stroke:#000000;stroke-width:0.8;" x="38.482813" xlink:href="#m9b9c7d121b" y="223.647438"/>
      </g>
     </g>
     <g id="text_17">
      <!-- −1 -->
      <g transform="translate(16.740625 227.446657)scale(0.1 -0.1)">
       <use xlink:href="#DejaVuSans-2212"/>
       <use x="83.789062" xlink:href="#DejaVuSans-31"/>
      </g>
     </g>
    </g>
    <g id="ytick_6">
     <g id="line2d_20">
      <g>
       <use style="stroke:#000000;stroke-width:0.8;" x="38.482813" xlink:href="#m9b9c7d121b" y="178.721818"/>
      </g>
     </g>
     <g id="text_18">
      <!-- 0 -->
      <g transform="translate(25.120313 182.521037)scale(0.1 -0.1)">
       <use xlink:href="#DejaVuSans-30"/>
      </g>
     </g>
    </g>
    <g id="ytick_7">
     <g id="line2d_21">
      <g>
       <use style="stroke:#000000;stroke-width:0.8;" x="38.482813" xlink:href="#m9b9c7d121b" y="133.796198"/>
      </g>
     </g>
     <g id="text_19">
      <!-- 1 -->
      <g transform="translate(25.120313 137.595417)scale(0.1 -0.1)">
       <use xlink:href="#DejaVuSans-31"/>
      </g>
     </g>
    </g>
   </g>
   <g id="line2d_22">
    <path clip-path="url(#p0abfc4f620)" d="M 53.700994 133.796198 
L 54.923338 134.15045 
L 56.145682 135.207619 
L 57.368026 136.951033 
L 58.59037 139.353197 
L 59.812714 142.376228 
L 61.035058 145.972451 
L 62.257402 150.08515 
L 64.70209 159.59342 
L 67.146777 170.303596 
L 73.258497 197.850217 
L 75.703185 207.358486 
L 76.925529 211.471186 
L 78.147873 215.067408 
L 79.370217 218.090439 
L 80.592561 220.492603 
L 81.814905 222.236017 
L 83.037248 223.293186 
L 84.259592 223.647438 
L 85.481936 223.293186 
L 86.70428 222.236017 
L 87.926624 220.492603 
L 89.148968 218.090439 
L 90.371312 215.067408 
L 91.593656 211.471186 
L 92.816 207.358486 
L 95.260688 197.850217 
L 97.705375 187.14004 
L 103.817095 159.59342 
L 106.261783 150.08515 
L 107.484127 145.972451 
L 108.706471 142.376228 
L 109.928815 139.353197 
L 111.151159 136.951033 
L 112.373503 135.207619 
L 113.595846 134.15045 
L 114.81819 133.796198 
L 116.040534 134.15045 
L 117.262878 135.207619 
L 118.485222 136.951033 
L 119.707566 139.353197 
L 120.92991 142.376228 
L 122.152254 145.972451 
L 123.374598 150.08515 
L 125.819286 159.59342 
L 128.263974 170.303596 
L 134.375693 197.850217 
L 136.820381 207.358486 
L 138.042725 211.471186 
L 139.265069 215.067408 
L 140.487413 218.090439 
L 141.709757 220.492603 
L 142.932101 222.236017 
L 144.154444 223.293186 
L 145.376788 223.647438 
L 146.599132 223.293186 
L 147.821476 222.236017 
L 149.04382 220.492603 
L 150.266164 218.090439 
L 151.488508 215.067408 
L 152.710852 211.471186 
L 153.933196 207.358486 
L 156.377884 197.850217 
L 158.822572 187.14004 
L 164.934291 159.59342 
L 167.378979 150.08515 
L 168.601323 145.972451 
L 169.823667 142.376228 
L 171.046011 139.353197 
L 172.268355 136.951033 
L 173.490699 135.207619 
L 174.713043 134.15045 
L 175.935386 133.796198 
L 177.15773 134.15045 
L 178.380074 135.207619 
L 179.602418 136.951033 
L 180.824762 139.353197 
L 182.047106 142.376228 
L 183.26945 145.972451 
L 184.491794 150.08515 
L 186.936482 159.59342 
L 189.38117 170.303596 
L 195.492889 197.850217 
L 197.937577 207.358486 
L 199.159921 211.471186 
L 200.382265 215.067408 
L 201.604609 218.090439 
L 202.826953 220.492603 
L 204.049297 222.236017 
L 205.271641 223.293186 
L 206.493984 223.647438 
L 207.716328 223.293186 
L 208.938672 222.236017 
L 210.161016 220.492603 
L 211.38336 218.090439 
L 212.605704 215.067408 
L 213.828048 211.471186 
L 215.050392 207.358486 
L 217.49508 197.850217 
L 219.939768 187.14004 
L 226.051487 159.59342 
L 228.496175 150.08515 
L 229.718519 145.972451 
L 230.940863 142.376228 
L 232.163207 139.353197 
L 233.385551 136.951033 
L 234.607895 135.207619 
L 235.830239 134.15045 
L 237.052582 133.796198 
L 238.274926 134.15045 
L 239.49727 135.207619 
L 240.719614 136.951033 
L 241.941958 139.353197 
L 243.164302 142.376228 
L 244.386646 145.972451 
L 245.60899 150.08515 
L 248.053678 159.59342 
L 250.498366 170.303596 
L 256.610085 197.850217 
L 259.054773 207.358486 
L 260.277117 211.471186 
L 261.499461 215.067408 
L 262.721805 218.090439 
L 263.944149 220.492603 
L 265.166493 222.236017 
L 266.388837 223.293186 
L 267.611181 223.647438 
L 268.833524 223.293186 
L 270.055868 222.236017 
L 271.278212 220.492603 
L 272.500556 218.090439 
L 273.7229 215.067408 
L 274.945244 211.471186 
L 276.167588 207.358486 
L 278.612276 197.850217 
L 281.056964 187.14004 
L 287.168683 159.59342 
L 289.613371 150.08515 
L 290.835715 145.972451 
L 292.058059 142.376228 
L 293.280403 139.353197 
L 294.502747 136.951033 
L 295.725091 135.207619 
L 296.947435 134.15045 
L 298.169779 133.796198 
L 299.392122 134.15045 
L 300.614466 135.207619 
L 301.83681 136.951033 
L 303.059154 139.353197 
L 304.281498 142.376228 
L 305.503842 145.972451 
L 306.726186 150.08515 
L 309.170874 159.59342 
L 311.615562 170.303596 
L 317.727281 197.850217 
L 320.171969 207.358486 
L 321.394313 211.471186 
L 322.616657 215.067408 
L 323.839001 218.090439 
L 325.061345 220.492603 
L 326.283689 222.236017 
L 327.506033 223.293186 
L 328.728377 223.647438 
L 329.95072 223.293186 
L 331.173064 222.236017 
L 332.395408 220.492603 
L 333.617752 218.090439 
L 334.840096 215.067408 
L 336.06244 211.471186 
L 337.284784 207.358486 
L 339.729472 197.850217 
L 342.17416 187.14004 
L 348.285879 159.59342 
L 350.730567 150.08515 
L 351.952911 145.972451 
L 353.175255 142.376228 
L 354.397599 139.353197 
L 355.619943 136.951033 
L 356.842287 135.207619 
L 358.064631 134.15045 
L 358.064631 134.15045 
" style="fill:none;stroke:#ff0000;stroke-dasharray:5.55,2.4;stroke-dashoffset:0;stroke-width:1.5;"/>
   </g>
   <g id="patch_8">
    <path d="M 38.482813 228.14 
L 38.482813 129.303636 
" style="fill:none;stroke:#000000;stroke-linecap:square;stroke-linejoin:miter;stroke-width:0.8;"/>
   </g>
   <g id="patch_9">
    <path d="M 373.282813 228.14 
L 373.282813 129.303636 
" style="fill:none;stroke:#000000;stroke-linecap:square;stroke-linejoin:miter;stroke-width:0.8;"/>
   </g>
   <g id="patch_10">
    <path d="M 38.482813 228.14 
L 373.282813 228.14 
" style="fill:none;stroke:#000000;stroke-linecap:square;stroke-linejoin:miter;stroke-width:0.8;"/>
   </g>
   <g id="patch_11">
    <path d="M 38.482813 129.303636 
L 373.282813 129.303636 
" style="fill:none;stroke:#000000;stroke-linecap:square;stroke-linejoin:miter;stroke-width:0.8;"/>
   </g>
  </g>
 </g>
 <defs>
  <clipPath id="p484df71423">
   <rect height="98.836364" width="334.8" x="38.482813" y="10.7"/>
  </clipPath>
  <clipPath id="p0abfc4f620">
   <rect height="98.836364" width="334.8" x="38.482813" y="129.303636"/>
  </clipPath>
 </defs>
</svg>
