<?xml version="1.0" encoding="utf-8" standalone="no"?>
<!DOCTYPE svg PUBLIC "-//W3C//DTD SVG 1.1//EN"
  "http://www.w3.org/Graphics/SVG/1.1/DTD/svg11.dtd">
<!-- Created with matplotlib (http://matplotlib.org/) -->
<svg height="252pt" version="1.1" viewBox="0 0 613 252" width="613pt" xmlns="http://www.w3.org/2000/svg" xmlns:xlink="http://www.w3.org/1999/xlink">
 <defs>
  <style type="text/css">
*{stroke-linecap:butt;stroke-linejoin:round;}
  </style>
 </defs>
 <g id="figure_1">
  <g id="patch_1">
   <path d="M 0 252.018125 
L 613.545312 252.018125 
L 613.545312 0 
L 0 0 
z
" style="fill:none;"/>
  </g>
  <g id="axes_1">
   <g id="patch_2">
    <path d="M 44.845313 228.14 
L 298.481676 228.14 
L 298.481676 10.7 
L 44.845313 10.7 
z
" style="fill:#ffffff;"/>
   </g>
   <g id="matplotlib.axis_1">
    <g id="xtick_1">
     <g id="line2d_1">
      <defs>
       <path d="M 0 0 
L 0 3.5 
" id="m6b7e2d2f87" style="stroke:#000000;stroke-width:0.8;"/>
      </defs>
      <g>
       <use style="stroke:#000000;stroke-width:0.8;" x="56.374238" xlink:href="#m6b7e2d2f87" y="228.14"/>
      </g>
     </g>
     <g id="text_1">
      <!-- 0 -->
      <defs>
       <path d="M 31.78125 66.40625 
Q 24.171875 66.40625 20.328125 58.90625 
Q 16.5 51.421875 16.5 36.375 
Q 16.5 21.390625 20.328125 13.890625 
Q 24.171875 6.390625 31.78125 6.390625 
Q 39.453125 6.390625 43.28125 13.890625 
Q 47.125 21.390625 47.125 36.375 
Q 47.125 51.421875 43.28125 58.90625 
Q 39.453125 66.40625 31.78125 66.40625 
z
M 31.78125 74.21875 
Q 44.046875 74.21875 50.515625 64.515625 
Q 56.984375 54.828125 56.984375 36.375 
Q 56.984375 17.96875 50.515625 8.265625 
Q 44.046875 -1.421875 31.78125 -1.421875 
Q 19.53125 -1.421875 13.0625 8.265625 
Q 6.59375 17.96875 6.59375 36.375 
Q 6.59375 54.828125 13.0625 64.515625 
Q 19.53125 74.21875 31.78125 74.21875 
z
" id="DejaVuSans-30"/>
      </defs>
      <g transform="translate(53.192988 242.738437)scale(0.1 -0.1)">
       <use xlink:href="#DejaVuSans-30"/>
      </g>
     </g>
    </g>
    <g id="xtick_2">
     <g id="line2d_2">
      <g>
       <use style="stroke:#000000;stroke-width:0.8;" x="114.308538" xlink:href="#m6b7e2d2f87" y="228.14"/>
      </g>
     </g>
     <g id="text_2">
      <!-- 1 -->
      <defs>
       <path d="M 12.40625 8.296875 
L 28.515625 8.296875 
L 28.515625 63.921875 
L 10.984375 60.40625 
L 10.984375 69.390625 
L 28.421875 72.90625 
L 38.28125 72.90625 
L 38.28125 8.296875 
L 54.390625 8.296875 
L 54.390625 0 
L 12.40625 0 
z
" id="DejaVuSans-31"/>
      </defs>
      <g transform="translate(111.127288 242.738437)scale(0.1 -0.1)">
       <use xlink:href="#DejaVuSans-31"/>
      </g>
     </g>
    </g>
    <g id="xtick_3">
     <g id="line2d_3">
      <g>
       <use style="stroke:#000000;stroke-width:0.8;" x="172.242837" xlink:href="#m6b7e2d2f87" y="228.14"/>
      </g>
     </g>
     <g id="text_3">
      <!-- 2 -->
      <defs>
       <path d="M 19.1875 8.296875 
L 53.609375 8.296875 
L 53.609375 0 
L 7.328125 0 
L 7.328125 8.296875 
Q 12.9375 14.109375 22.625 23.890625 
Q 32.328125 33.6875 34.8125 36.53125 
Q 39.546875 41.84375 41.421875 45.53125 
Q 43.3125 49.21875 43.3125 52.78125 
Q 43.3125 58.59375 39.234375 62.25 
Q 35.15625 65.921875 28.609375 65.921875 
Q 23.96875 65.921875 18.8125 64.3125 
Q 13.671875 62.703125 7.8125 59.421875 
L 7.8125 69.390625 
Q 13.765625 71.78125 18.9375 73 
Q 24.125 74.21875 28.421875 74.21875 
Q 39.75 74.21875 46.484375 68.546875 
Q 53.21875 62.890625 53.21875 53.421875 
Q 53.21875 48.921875 51.53125 44.890625 
Q 49.859375 40.875 45.40625 35.40625 
Q 44.1875 33.984375 37.640625 27.21875 
Q 31.109375 20.453125 19.1875 8.296875 
z
" id="DejaVuSans-32"/>
      </defs>
      <g transform="translate(169.061587 242.738437)scale(0.1 -0.1)">
       <use xlink:href="#DejaVuSans-32"/>
      </g>
     </g>
    </g>
    <g id="xtick_4">
     <g id="line2d_4">
      <g>
       <use style="stroke:#000000;stroke-width:0.8;" x="230.177137" xlink:href="#m6b7e2d2f87" y="228.14"/>
      </g>
     </g>
     <g id="text_4">
      <!-- 3 -->
      <defs>
       <path d="M 40.578125 39.3125 
Q 47.65625 37.796875 51.625 33 
Q 55.609375 28.21875 55.609375 21.1875 
Q 55.609375 10.40625 48.1875 4.484375 
Q 40.765625 -1.421875 27.09375 -1.421875 
Q 22.515625 -1.421875 17.65625 -0.515625 
Q 12.796875 0.390625 7.625 2.203125 
L 7.625 11.71875 
Q 11.71875 9.328125 16.59375 8.109375 
Q 21.484375 6.890625 26.8125 6.890625 
Q 36.078125 6.890625 40.9375 10.546875 
Q 45.796875 14.203125 45.796875 21.1875 
Q 45.796875 27.640625 41.28125 31.265625 
Q 36.765625 34.90625 28.71875 34.90625 
L 20.21875 34.90625 
L 20.21875 43.015625 
L 29.109375 43.015625 
Q 36.375 43.015625 40.234375 45.921875 
Q 44.09375 48.828125 44.09375 54.296875 
Q 44.09375 59.90625 40.109375 62.90625 
Q 36.140625 65.921875 28.71875 65.921875 
Q 24.65625 65.921875 20.015625 65.03125 
Q 15.375 64.15625 9.8125 62.3125 
L 9.8125 71.09375 
Q 15.4375 72.65625 20.34375 73.4375 
Q 25.25 74.21875 29.59375 74.21875 
Q 40.828125 74.21875 47.359375 69.109375 
Q 53.90625 64.015625 53.90625 55.328125 
Q 53.90625 49.265625 50.4375 45.09375 
Q 46.96875 40.921875 40.578125 39.3125 
z
" id="DejaVuSans-33"/>
      </defs>
      <g transform="translate(226.995887 242.738437)scale(0.1 -0.1)">
       <use xlink:href="#DejaVuSans-33"/>
      </g>
     </g>
    </g>
    <g id="xtick_5">
     <g id="line2d_5">
      <g>
       <use style="stroke:#000000;stroke-width:0.8;" x="288.111437" xlink:href="#m6b7e2d2f87" y="228.14"/>
      </g>
     </g>
     <g id="text_5">
      <!-- 4 -->
      <defs>
       <path d="M 37.796875 64.3125 
L 12.890625 25.390625 
L 37.796875 25.390625 
z
M 35.203125 72.90625 
L 47.609375 72.90625 
L 47.609375 25.390625 
L 58.015625 25.390625 
L 58.015625 17.1875 
L 47.609375 17.1875 
L 47.609375 0 
L 37.796875 0 
L 37.796875 17.1875 
L 4.890625 17.1875 
L 4.890625 26.703125 
z
" id="DejaVuSans-34"/>
      </defs>
      <g transform="translate(284.930187 242.738437)scale(0.1 -0.1)">
       <use xlink:href="#DejaVuSans-34"/>
      </g>
     </g>
    </g>
   </g>
   <g id="matplotlib.axis_2">
    <g id="ytick_1">
     <g id="line2d_6">
      <defs>
       <path d="M 0 0 
L -3.5 0 
" id="m8fb477c0a8" style="stroke:#000000;stroke-width:0.8;"/>
      </defs>
      <g>
       <use style="stroke:#000000;stroke-width:0.8;" x="44.845313" xlink:href="#m8fb477c0a8" y="218.256364"/>
      </g>
     </g>
     <g id="text_6">
      <!-- −1.00 -->
      <defs>
       <path d="M 10.59375 35.5 
L 73.1875 35.5 
L 73.1875 27.203125 
L 10.59375 27.203125 
z
" id="DejaVuSans-2212"/>
       <path d="M 10.6875 12.40625 
L 21 12.40625 
L 21 0 
L 10.6875 0 
z
" id="DejaVuSans-2e"/>
      </defs>
      <g transform="translate(7.2 222.055582)scale(0.1 -0.1)">
       <use xlink:href="#DejaVuSans-2212"/>
       <use x="83.789062" xlink:href="#DejaVuSans-31"/>
       <use x="147.412109" xlink:href="#DejaVuSans-2e"/>
       <use x="179.199219" xlink:href="#DejaVuSans-30"/>
       <use x="242.822266" xlink:href="#DejaVuSans-30"/>
      </g>
     </g>
    </g>
    <g id="ytick_2">
     <g id="line2d_7">
      <g>
       <use style="stroke:#000000;stroke-width:0.8;" x="44.845313" xlink:href="#m8fb477c0a8" y="193.547273"/>
      </g>
     </g>
     <g id="text_7">
      <!-- −0.75 -->
      <defs>
       <path d="M 8.203125 72.90625 
L 55.078125 72.90625 
L 55.078125 68.703125 
L 28.609375 0 
L 18.3125 0 
L 43.21875 64.59375 
L 8.203125 64.59375 
z
" id="DejaVuSans-37"/>
       <path d="M 10.796875 72.90625 
L 49.515625 72.90625 
L 49.515625 64.59375 
L 19.828125 64.59375 
L 19.828125 46.734375 
Q 21.96875 47.46875 24.109375 47.828125 
Q 26.265625 48.1875 28.421875 48.1875 
Q 40.625 48.1875 47.75 41.5 
Q 54.890625 34.8125 54.890625 23.390625 
Q 54.890625 11.625 47.5625 5.09375 
Q 40.234375 -1.421875 26.90625 -1.421875 
Q 22.3125 -1.421875 17.546875 -0.640625 
Q 12.796875 0.140625 7.71875 1.703125 
L 7.71875 11.625 
Q 12.109375 9.234375 16.796875 8.0625 
Q 21.484375 6.890625 26.703125 6.890625 
Q 35.15625 6.890625 40.078125 11.328125 
Q 45.015625 15.765625 45.015625 23.390625 
Q 45.015625 31 40.078125 35.4375 
Q 35.15625 39.890625 26.703125 39.890625 
Q 22.75 39.890625 18.8125 39.015625 
Q 14.890625 38.140625 10.796875 36.28125 
z
" id="DejaVuSans-35"/>
      </defs>
      <g transform="translate(7.2 197.346491)scale(0.1 -0.1)">
       <use xlink:href="#DejaVuSans-2212"/>
       <use x="83.789062" xlink:href="#DejaVuSans-30"/>
       <use x="147.412109" xlink:href="#DejaVuSans-2e"/>
       <use x="179.199219" xlink:href="#DejaVuSans-37"/>
       <use x="242.822266" xlink:href="#DejaVuSans-35"/>
      </g>
     </g>
    </g>
    <g id="ytick_3">
     <g id="line2d_8">
      <g>
       <use style="stroke:#000000;stroke-width:0.8;" x="44.845313" xlink:href="#m8fb477c0a8" y="168.838182"/>
      </g>
     </g>
     <g id="text_8">
      <!-- −0.50 -->
      <g transform="translate(7.2 172.637401)scale(0.1 -0.1)">
       <use xlink:href="#DejaVuSans-2212"/>
       <use x="83.789062" xlink:href="#DejaVuSans-30"/>
       <use x="147.412109" xlink:href="#DejaVuSans-2e"/>
       <use x="179.199219" xlink:href="#DejaVuSans-35"/>
       <use x="242.822266" xlink:href="#DejaVuSans-30"/>
      </g>
     </g>
    </g>
    <g id="ytick_4">
     <g id="line2d_9">
      <g>
       <use style="stroke:#000000;stroke-width:0.8;" x="44.845313" xlink:href="#m8fb477c0a8" y="144.129091"/>
      </g>
     </g>
     <g id="text_9">
      <!-- −0.25 -->
      <g transform="translate(7.2 147.92831)scale(0.1 -0.1)">
       <use xlink:href="#DejaVuSans-2212"/>
       <use x="83.789062" xlink:href="#DejaVuSans-30"/>
       <use x="147.412109" xlink:href="#DejaVuSans-2e"/>
       <use x="179.199219" xlink:href="#DejaVuSans-32"/>
       <use x="242.822266" xlink:href="#DejaVuSans-35"/>
      </g>
     </g>
    </g>
    <g id="ytick_5">
     <g id="line2d_10">
      <g>
       <use style="stroke:#000000;stroke-width:0.8;" x="44.845313" xlink:href="#m8fb477c0a8" y="119.42"/>
      </g>
     </g>
     <g id="text_10">
      <!-- 0.00 -->
      <g transform="translate(15.579688 123.219219)scale(0.1 -0.1)">
       <use xlink:href="#DejaVuSans-30"/>
       <use x="63.623047" xlink:href="#DejaVuSans-2e"/>
       <use x="95.410156" xlink:href="#DejaVuSans-30"/>
       <use x="159.033203" xlink:href="#DejaVuSans-30"/>
      </g>
     </g>
    </g>
    <g id="ytick_6">
     <g id="line2d_11">
      <g>
       <use style="stroke:#000000;stroke-width:0.8;" x="44.845313" xlink:href="#m8fb477c0a8" y="94.710909"/>
      </g>
     </g>
     <g id="text_11">
      <!-- 0.25 -->
      <g transform="translate(15.579688 98.510128)scale(0.1 -0.1)">
       <use xlink:href="#DejaVuSans-30"/>
       <use x="63.623047" xlink:href="#DejaVuSans-2e"/>
       <use x="95.410156" xlink:href="#DejaVuSans-32"/>
       <use x="159.033203" xlink:href="#DejaVuSans-35"/>
      </g>
     </g>
    </g>
    <g id="ytick_7">
     <g id="line2d_12">
      <g>
       <use style="stroke:#000000;stroke-width:0.8;" x="44.845313" xlink:href="#m8fb477c0a8" y="70.001818"/>
      </g>
     </g>
     <g id="text_12">
      <!-- 0.50 -->
      <g transform="translate(15.579688 73.801037)scale(0.1 -0.1)">
       <use xlink:href="#DejaVuSans-30"/>
       <use x="63.623047" xlink:href="#DejaVuSans-2e"/>
       <use x="95.410156" xlink:href="#DejaVuSans-35"/>
       <use x="159.033203" xlink:href="#DejaVuSans-30"/>
      </g>
     </g>
    </g>
    <g id="ytick_8">
     <g id="line2d_13">
      <g>
       <use style="stroke:#000000;stroke-width:0.8;" x="44.845313" xlink:href="#m8fb477c0a8" y="45.292727"/>
      </g>
     </g>
     <g id="text_13">
      <!-- 0.75 -->
      <g transform="translate(15.579688 49.091946)scale(0.1 -0.1)">
       <use xlink:href="#DejaVuSans-30"/>
       <use x="63.623047" xlink:href="#DejaVuSans-2e"/>
       <use x="95.410156" xlink:href="#DejaVuSans-37"/>
       <use x="159.033203" xlink:href="#DejaVuSans-35"/>
      </g>
     </g>
    </g>
    <g id="ytick_9">
     <g id="line2d_14">
      <g>
       <use style="stroke:#000000;stroke-width:0.8;" x="44.845313" xlink:href="#m8fb477c0a8" y="20.583636"/>
      </g>
     </g>
     <g id="text_14">
      <!-- 1.00 -->
      <g transform="translate(15.579688 24.382855)scale(0.1 -0.1)">
       <use xlink:href="#DejaVuSans-31"/>
       <use x="63.623047" xlink:href="#DejaVuSans-2e"/>
       <use x="95.410156" xlink:href="#DejaVuSans-30"/>
       <use x="159.033203" xlink:href="#DejaVuSans-30"/>
      </g>
     </g>
    </g>
   </g>
   <g id="line2d_15">
    <path clip-path="url(#p838f324726)" d="M 56.374238 20.583636 
L 57.532924 21.362991 
L 58.69161 23.688762 
L 59.850296 27.524273 
L 61.008982 32.809034 
L 62.167668 39.459702 
L 63.326354 47.371392 
L 64.48504 56.419331 
L 66.802412 77.337523 
L 69.119784 100.899912 
L 74.913214 161.502477 
L 77.230586 182.420669 
L 78.389272 191.468608 
L 79.547958 199.380298 
L 80.706644 206.030966 
L 81.86533 211.315727 
L 83.024016 215.151238 
L 84.182702 217.477009 
L 85.341388 218.256364 
L 86.500074 217.477009 
L 87.65876 215.151238 
L 88.817446 211.315727 
L 89.976132 206.030966 
L 91.134818 199.380298 
L 92.293504 191.468608 
L 93.45219 182.420669 
L 95.769562 161.502477 
L 98.086934 137.940088 
L 103.880364 77.337523 
L 106.197736 56.419331 
L 107.356422 47.371392 
L 108.515108 39.459702 
L 109.673794 32.809034 
L 110.83248 27.524273 
L 111.991166 23.688762 
L 113.149852 21.362991 
L 114.308538 20.583636 
L 115.467224 21.362991 
L 116.62591 23.688762 
L 117.784596 27.524273 
L 118.943282 32.809034 
L 120.101968 39.459702 
L 121.260654 47.371392 
L 122.41934 56.419331 
L 124.736712 77.337523 
L 127.054084 100.899912 
L 132.847514 161.502477 
L 135.164886 182.420669 
L 136.323572 191.468608 
L 137.482258 199.380298 
L 138.640944 206.030966 
L 139.79963 211.315727 
L 140.958316 215.151238 
L 142.117002 217.477009 
L 143.275688 218.256364 
L 144.434374 217.477009 
L 145.593059 215.151238 
L 146.751745 211.315727 
L 147.910431 206.030966 
L 149.069117 199.380298 
L 150.227803 191.468608 
L 151.386489 182.420669 
L 153.703861 161.502477 
L 156.021233 137.940088 
L 161.814663 77.337523 
L 164.132035 56.419331 
L 165.290721 47.371392 
L 166.449407 39.459702 
L 167.608093 32.809034 
L 168.766779 27.524273 
L 169.925465 23.688762 
L 171.084151 21.362991 
L 172.242837 20.583636 
L 173.401523 21.362991 
L 174.560209 23.688762 
L 175.718895 27.524273 
L 176.877581 32.809034 
L 178.036267 39.459702 
L 179.194953 47.371392 
L 180.353639 56.419331 
L 182.671011 77.337523 
L 184.988383 100.899912 
L 190.781813 161.502477 
L 193.099185 182.420669 
L 194.257871 191.468608 
L 195.416557 199.380298 
L 196.575243 206.030966 
L 197.733929 211.315727 
L 198.892615 215.151238 
L 200.051301 217.477009 
L 201.209987 218.256364 
L 202.368673 217.477009 
L 203.527359 215.151238 
L 204.686045 211.315727 
L 205.844731 206.030966 
L 207.003417 199.380298 
L 208.162103 191.468608 
L 209.320789 182.420669 
L 211.638161 161.502477 
L 213.955533 137.940088 
L 219.748963 77.337523 
L 222.066335 56.419331 
L 223.225021 47.371392 
L 224.383707 39.459702 
L 225.542393 32.809034 
L 226.701079 27.524273 
L 227.859765 23.688762 
L 229.018451 21.362991 
L 230.177137 20.583636 
L 231.335823 21.362991 
L 232.494509 23.688762 
L 233.653195 27.524273 
L 234.811881 32.809034 
L 235.970567 39.459702 
L 237.129253 47.371392 
L 238.287939 56.419331 
L 240.605311 77.337523 
L 242.922683 100.899912 
L 248.716113 161.502477 
L 251.033485 182.420669 
L 252.192171 191.468608 
L 253.350857 199.380298 
L 254.509543 206.030966 
L 255.668229 211.315727 
L 256.826915 215.151238 
L 257.985601 217.477009 
L 259.144287 218.256364 
L 260.302973 217.477009 
L 261.461659 215.151238 
L 262.620345 211.315727 
L 263.779031 206.030966 
L 264.937717 199.380298 
L 266.096403 191.468608 
L 267.255089 182.420669 
L 269.572461 161.502477 
L 271.889833 137.940088 
L 277.683263 77.337523 
L 280.000635 56.419331 
L 281.159321 47.371392 
L 282.318007 39.459702 
L 283.476693 32.809034 
L 284.635379 27.524273 
L 285.794065 23.688762 
L 286.952751 21.362991 
L 286.952751 21.362991 
" style="fill:none;stroke:#ff0000;stroke-dasharray:5.55,2.4;stroke-dashoffset:0;stroke-width:1.5;"/>
   </g>
   <g id="patch_3">
    <path d="M 44.845313 228.14 
L 44.845313 10.7 
" style="fill:none;stroke:#000000;stroke-linecap:square;stroke-linejoin:miter;stroke-width:0.8;"/>
   </g>
   <g id="patch_4">
    <path d="M 298.481676 228.14 
L 298.481676 10.7 
" style="fill:none;stroke:#000000;stroke-linecap:square;stroke-linejoin:miter;stroke-width:0.8;"/>
   </g>
   <g id="patch_5">
    <path d="M 44.845313 228.14 
L 298.481676 228.14 
" style="fill:none;stroke:#000000;stroke-linecap:square;stroke-linejoin:miter;stroke-width:0.8;"/>
   </g>
   <g id="patch_6">
    <path d="M 44.845313 10.7 
L 298.481676 10.7 
" style="fill:none;stroke:#000000;stroke-linecap:square;stroke-linejoin:miter;stroke-width:0.8;"/>
   </g>
  </g>
  <g id="axes_2">
   <g id="patch_7">
    <path d="M 349.208949 228.14 
L 602.845312 228.14 
L 602.845312 10.7 
L 349.208949 10.7 
z
" style="fill:#ffffff;"/>
   </g>
   <g id="matplotlib.axis_3">
    <g id="xtick_6">
     <g id="line2d_16">
      <g>
       <use style="stroke:#000000;stroke-width:0.8;" x="360.737874" xlink:href="#m6b7e2d2f87" y="228.14"/>
      </g>
     </g>
     <g id="text_15">
      <!-- 5.0 -->
      <g transform="translate(352.786312 242.738437)scale(0.1 -0.1)">
       <use xlink:href="#DejaVuSans-35"/>
       <use x="63.623047" xlink:href="#DejaVuSans-2e"/>
       <use x="95.410156" xlink:href="#DejaVuSans-30"/>
      </g>
     </g>
    </g>
    <g id="xtick_7">
     <g id="line2d_17">
      <g>
       <use style="stroke:#000000;stroke-width:0.8;" x="399.180441" xlink:href="#m6b7e2d2f87" y="228.14"/>
      </g>
     </g>
     <g id="text_16">
      <!-- 7.5 -->
      <g transform="translate(391.228878 242.738437)scale(0.1 -0.1)">
       <use xlink:href="#DejaVuSans-37"/>
       <use x="63.623047" xlink:href="#DejaVuSans-2e"/>
       <use x="95.410156" xlink:href="#DejaVuSans-35"/>
      </g>
     </g>
    </g>
    <g id="xtick_8">
     <g id="line2d_18">
      <g>
       <use style="stroke:#000000;stroke-width:0.8;" x="437.623007" xlink:href="#m6b7e2d2f87" y="228.14"/>
      </g>
     </g>
     <g id="text_17">
      <!-- 10.0 -->
      <g transform="translate(426.490194 242.738437)scale(0.1 -0.1)">
       <use xlink:href="#DejaVuSans-31"/>
       <use x="63.623047" xlink:href="#DejaVuSans-30"/>
       <use x="127.246094" xlink:href="#DejaVuSans-2e"/>
       <use x="159.033203" xlink:href="#DejaVuSans-30"/>
      </g>
     </g>
    </g>
    <g id="xtick_9">
     <g id="line2d_19">
      <g>
       <use style="stroke:#000000;stroke-width:0.8;" x="476.065573" xlink:href="#m6b7e2d2f87" y="228.14"/>
      </g>
     </g>
     <g id="text_18">
      <!-- 12.5 -->
      <g transform="translate(464.932761 242.738437)scale(0.1 -0.1)">
       <use xlink:href="#DejaVuSans-31"/>
       <use x="63.623047" xlink:href="#DejaVuSans-32"/>
       <use x="127.246094" xlink:href="#DejaVuSans-2e"/>
       <use x="159.033203" xlink:href="#DejaVuSans-35"/>
      </g>
     </g>
    </g>
    <g id="xtick_10">
     <g id="line2d_20">
      <g>
       <use style="stroke:#000000;stroke-width:0.8;" x="514.50814" xlink:href="#m6b7e2d2f87" y="228.14"/>
      </g>
     </g>
     <g id="text_19">
      <!-- 15.0 -->
      <g transform="translate(503.375327 242.738437)scale(0.1 -0.1)">
       <use xlink:href="#DejaVuSans-31"/>
       <use x="63.623047" xlink:href="#DejaVuSans-35"/>
       <use x="127.246094" xlink:href="#DejaVuSans-2e"/>
       <use x="159.033203" xlink:href="#DejaVuSans-30"/>
      </g>
     </g>
    </g>
    <g id="xtick_11">
     <g id="line2d_21">
      <g>
       <use style="stroke:#000000;stroke-width:0.8;" x="552.950706" xlink:href="#m6b7e2d2f87" y="228.14"/>
      </g>
     </g>
     <g id="text_20">
      <!-- 17.5 -->
      <g transform="translate(541.817893 242.738437)scale(0.1 -0.1)">
       <use xlink:href="#DejaVuSans-31"/>
       <use x="63.623047" xlink:href="#DejaVuSans-37"/>
       <use x="127.246094" xlink:href="#DejaVuSans-2e"/>
       <use x="159.033203" xlink:href="#DejaVuSans-35"/>
      </g>
     </g>
    </g>
    <g id="xtick_12">
     <g id="line2d_22">
      <g>
       <use style="stroke:#000000;stroke-width:0.8;" x="591.393272" xlink:href="#m6b7e2d2f87" y="228.14"/>
      </g>
     </g>
     <g id="text_21">
      <!-- 20.0 -->
      <g transform="translate(580.26046 242.738437)scale(0.1 -0.1)">
       <use xlink:href="#DejaVuSans-32"/>
       <use x="63.623047" xlink:href="#DejaVuSans-30"/>
       <use x="127.246094" xlink:href="#DejaVuSans-2e"/>
       <use x="159.033203" xlink:href="#DejaVuSans-30"/>
      </g>
     </g>
    </g>
   </g>
   <g id="matplotlib.axis_4">
    <g id="ytick_10">
     <g id="line2d_23">
      <g>
       <use style="stroke:#000000;stroke-width:0.8;" x="349.208949" xlink:href="#m8fb477c0a8" y="218.256364"/>
      </g>
     </g>
     <g id="text_22">
      <!-- −1.00 -->
      <g transform="translate(311.563636 222.055582)scale(0.1 -0.1)">
       <use xlink:href="#DejaVuSans-2212"/>
       <use x="83.789062" xlink:href="#DejaVuSans-31"/>
       <use x="147.412109" xlink:href="#DejaVuSans-2e"/>
       <use x="179.199219" xlink:href="#DejaVuSans-30"/>
       <use x="242.822266" xlink:href="#DejaVuSans-30"/>
      </g>
     </g>
    </g>
    <g id="ytick_11">
     <g id="line2d_24">
      <g>
       <use style="stroke:#000000;stroke-width:0.8;" x="349.208949" xlink:href="#m8fb477c0a8" y="193.547273"/>
      </g>
     </g>
     <g id="text_23">
      <!-- −0.75 -->
      <g transform="translate(311.563636 197.346491)scale(0.1 -0.1)">
       <use xlink:href="#DejaVuSans-2212"/>
       <use x="83.789062" xlink:href="#DejaVuSans-30"/>
       <use x="147.412109" xlink:href="#DejaVuSans-2e"/>
       <use x="179.199219" xlink:href="#DejaVuSans-37"/>
       <use x="242.822266" xlink:href="#DejaVuSans-35"/>
      </g>
     </g>
    </g>
    <g id="ytick_12">
     <g id="line2d_25">
      <g>
       <use style="stroke:#000000;stroke-width:0.8;" x="349.208949" xlink:href="#m8fb477c0a8" y="168.838182"/>
      </g>
     </g>
     <g id="text_24">
      <!-- −0.50 -->
      <g transform="translate(311.563636 172.637401)scale(0.1 -0.1)">
       <use xlink:href="#DejaVuSans-2212"/>
       <use x="83.789062" xlink:href="#DejaVuSans-30"/>
       <use x="147.412109" xlink:href="#DejaVuSans-2e"/>
       <use x="179.199219" xlink:href="#DejaVuSans-35"/>
       <use x="242.822266" xlink:href="#DejaVuSans-30"/>
      </g>
     </g>
    </g>
    <g id="ytick_13">
     <g id="line2d_26">
      <g>
       <use style="stroke:#000000;stroke-width:0.8;" x="349.208949" xlink:href="#m8fb477c0a8" y="144.129091"/>
      </g>
     </g>
     <g id="text_25">
      <!-- −0.25 -->
      <g transform="translate(311.563636 147.92831)scale(0.1 -0.1)">
       <use xlink:href="#DejaVuSans-2212"/>
       <use x="83.789062" xlink:href="#DejaVuSans-30"/>
       <use x="147.412109" xlink:href="#DejaVuSans-2e"/>
       <use x="179.199219" xlink:href="#DejaVuSans-32"/>
       <use x="242.822266" xlink:href="#DejaVuSans-35"/>
      </g>
     </g>
    </g>
    <g id="ytick_14">
     <g id="line2d_27">
      <g>
       <use style="stroke:#000000;stroke-width:0.8;" x="349.208949" xlink:href="#m8fb477c0a8" y="119.42"/>
      </g>
     </g>
     <g id="text_26">
      <!-- 0.00 -->
      <g transform="translate(319.943324 123.219219)scale(0.1 -0.1)">
       <use xlink:href="#DejaVuSans-30"/>
       <use x="63.623047" xlink:href="#DejaVuSans-2e"/>
       <use x="95.410156" xlink:href="#DejaVuSans-30"/>
       <use x="159.033203" xlink:href="#DejaVuSans-30"/>
      </g>
     </g>
    </g>
    <g id="ytick_15">
     <g id="line2d_28">
      <g>
       <use style="stroke:#000000;stroke-width:0.8;" x="349.208949" xlink:href="#m8fb477c0a8" y="94.710909"/>
      </g>
     </g>
     <g id="text_27">
      <!-- 0.25 -->
      <g transform="translate(319.943324 98.510128)scale(0.1 -0.1)">
       <use xlink:href="#DejaVuSans-30"/>
       <use x="63.623047" xlink:href="#DejaVuSans-2e"/>
       <use x="95.410156" xlink:href="#DejaVuSans-32"/>
       <use x="159.033203" xlink:href="#DejaVuSans-35"/>
      </g>
     </g>
    </g>
    <g id="ytick_16">
     <g id="line2d_29">
      <g>
       <use style="stroke:#000000;stroke-width:0.8;" x="349.208949" xlink:href="#m8fb477c0a8" y="70.001818"/>
      </g>
     </g>
     <g id="text_28">
      <!-- 0.50 -->
      <g transform="translate(319.943324 73.801037)scale(0.1 -0.1)">
       <use xlink:href="#DejaVuSans-30"/>
       <use x="63.623047" xlink:href="#DejaVuSans-2e"/>
       <use x="95.410156" xlink:href="#DejaVuSans-35"/>
       <use x="159.033203" xlink:href="#DejaVuSans-30"/>
      </g>
     </g>
    </g>
    <g id="ytick_17">
     <g id="line2d_30">
      <g>
       <use style="stroke:#000000;stroke-width:0.8;" x="349.208949" xlink:href="#m8fb477c0a8" y="45.292727"/>
      </g>
     </g>
     <g id="text_29">
      <!-- 0.75 -->
      <g transform="translate(319.943324 49.091946)scale(0.1 -0.1)">
       <use xlink:href="#DejaVuSans-30"/>
       <use x="63.623047" xlink:href="#DejaVuSans-2e"/>
       <use x="95.410156" xlink:href="#DejaVuSans-37"/>
       <use x="159.033203" xlink:href="#DejaVuSans-35"/>
      </g>
     </g>
    </g>
    <g id="ytick_18">
     <g id="line2d_31">
      <g>
       <use style="stroke:#000000;stroke-width:0.8;" x="349.208949" xlink:href="#m8fb477c0a8" y="20.583636"/>
      </g>
     </g>
     <g id="text_30">
      <!-- 1.00 -->
      <g transform="translate(319.943324 24.382855)scale(0.1 -0.1)">
       <use xlink:href="#DejaVuSans-31"/>
       <use x="63.623047" xlink:href="#DejaVuSans-2e"/>
       <use x="95.410156" xlink:href="#DejaVuSans-30"/>
       <use x="159.033203" xlink:href="#DejaVuSans-30"/>
      </g>
     </g>
    </g>
   </g>
   <g id="line2d_32">
    <path clip-path="url(#pb2f5c44ed7)" d="M 360.737874 20.583636 
L 360.891645 20.778667 
L 361.1223 21.800476 
L 361.429841 24.508064 
L 361.814266 29.990184 
L 362.352462 41.323952 
L 363.044428 61.325443 
L 364.043935 97.859515 
L 366.350489 184.78166 
L 367.11934 204.492612 
L 367.657536 213.418968 
L 368.041962 217.039524 
L 368.349503 218.207594 
L 368.503273 218.207594 
L 368.657043 217.817724 
L 368.887699 216.5057 
L 369.195239 213.418968 
L 369.65655 206.030966 
L 370.194746 193.55825 
L 370.963597 169.731802 
L 372.116874 125.625987 
L 373.808347 61.325443 
L 374.577198 39.459702 
L 375.192279 27.524273 
L 375.65359 22.3343 
L 375.961131 20.778667 
L 376.114901 20.583636 
L 376.268671 20.778667 
L 376.499327 21.800476 
L 376.806867 24.508064 
L 377.191293 29.990184 
L 377.729489 41.323952 
L 378.421455 61.325443 
L 379.420962 97.859515 
L 381.727516 184.78166 
L 382.496367 204.492612 
L 383.034563 213.418968 
L 383.418989 217.039524 
L 383.726529 218.207594 
L 383.880299 218.207594 
L 384.03407 217.817724 
L 384.264725 216.5057 
L 384.572266 213.418968 
L 385.033576 206.030966 
L 385.571772 193.55825 
L 386.340624 169.731802 
L 387.493901 125.625987 
L 389.185374 61.325443 
L 389.954225 39.459702 
L 390.569306 27.524273 
L 391.030617 22.3343 
L 391.338157 20.778667 
L 391.491927 20.583636 
L 391.645698 20.778667 
L 391.876353 21.800476 
L 392.183894 24.508064 
L 392.568319 29.990184 
L 393.106515 41.323952 
L 393.798481 61.325443 
L 394.797988 97.859515 
L 397.104542 184.78166 
L 397.873393 204.492612 
L 398.411589 213.418968 
L 398.796015 217.039524 
L 399.103556 218.207594 
L 399.257326 218.207594 
L 399.411096 217.817724 
L 399.641752 216.5057 
L 399.949292 213.418968 
L 400.410603 206.030966 
L 400.948799 193.55825 
L 401.71765 169.731802 
L 402.870927 125.625987 
L 404.5624 61.325443 
L 405.331251 39.459702 
L 405.946332 27.524273 
L 406.407643 22.3343 
L 406.715184 20.778667 
L 406.868954 20.583636 
L 407.022724 20.778667 
L 407.25338 21.800476 
L 407.56092 24.508064 
L 407.945346 29.990184 
L 408.483542 41.323952 
L 409.175508 61.325443 
L 410.175015 97.859515 
L 412.481569 184.78166 
L 413.25042 204.492612 
L 413.788616 213.418968 
L 414.173042 217.039524 
L 414.480582 218.207594 
L 414.634352 218.207594 
L 414.788123 217.817724 
L 415.018778 216.5057 
L 415.326319 213.418968 
L 415.787629 206.030966 
L 416.325825 193.55825 
L 417.094677 169.731802 
L 418.247954 125.625987 
L 419.939427 61.325443 
L 420.708278 39.459702 
L 421.323359 27.524273 
L 421.78467 22.3343 
L 422.09221 20.778667 
L 422.24598 20.583636 
L 422.399751 20.778667 
L 422.630406 21.800476 
L 422.937947 24.508064 
L 423.322372 29.990184 
L 423.860568 41.323952 
L 424.552534 61.325443 
L 425.552041 97.859515 
L 427.858595 184.78166 
L 428.627446 204.492612 
L 429.165642 213.418968 
L 429.550068 217.039524 
L 429.857609 218.207594 
L 430.011379 218.207594 
L 430.165149 217.817724 
L 430.395805 216.5057 
L 430.703345 213.418968 
L 431.164656 206.030966 
L 431.702852 193.55825 
L 432.471703 169.731802 
L 433.62498 125.625987 
L 435.316453 61.325443 
L 436.085304 39.459702 
L 436.700385 27.524273 
L 437.161696 22.3343 
L 437.469237 20.778667 
L 437.623007 20.583636 
L 437.776777 20.778667 
L 438.007433 21.800476 
L 438.314973 24.508064 
L 438.699399 29.990184 
L 439.237595 41.323952 
L 439.929561 61.325443 
L 440.929068 97.859515 
L 443.235622 184.78166 
L 444.004473 204.492612 
L 444.542669 213.418968 
L 444.927095 217.039524 
L 445.234635 218.207594 
L 445.388405 218.207594 
L 445.542176 217.817724 
L 445.772831 216.5057 
L 446.080372 213.418968 
L 446.541682 206.030966 
L 447.079878 193.55825 
L 447.84873 169.731802 
L 449.002007 125.625987 
L 450.69348 61.325443 
L 451.462331 39.459702 
L 452.077412 27.524273 
L 452.538723 22.3343 
L 452.846263 20.778667 
L 453.000033 20.583636 
L 453.153804 20.778667 
L 453.384459 21.800476 
L 453.692 24.508064 
L 454.076425 29.990184 
L 454.614621 41.323952 
L 455.306587 61.325443 
L 456.306094 97.859515 
L 458.612648 184.78166 
L 459.381499 204.492612 
L 459.919695 213.418968 
L 460.304121 217.039524 
L 460.611662 218.207594 
L 460.765432 218.207594 
L 460.919202 217.817724 
L 461.149858 216.5057 
L 461.457398 213.418968 
L 461.918709 206.030966 
L 462.456905 193.55825 
L 463.225756 169.731802 
L 464.379033 125.625987 
L 466.070506 61.325443 
L 466.839357 39.459702 
L 467.454438 27.524273 
L 467.915749 22.3343 
L 468.22329 20.778667 
L 468.37706 20.583636 
L 468.53083 20.778667 
L 468.761486 21.800476 
L 469.069026 24.508064 
L 469.453452 29.990184 
L 469.991648 41.323952 
L 470.683614 61.325443 
L 471.683121 97.859515 
L 473.989675 184.78166 
L 474.758526 204.492612 
L 475.296722 213.418968 
L 475.681148 217.039524 
L 475.988688 218.207594 
L 476.142458 218.207594 
L 476.296229 217.817724 
L 476.526884 216.5057 
L 476.834425 213.418968 
L 477.295735 206.030966 
L 477.833931 193.55825 
L 478.602783 169.731802 
L 479.75606 125.625987 
L 481.447533 61.325443 
L 482.216384 39.459702 
L 482.831465 27.524273 
L 483.292776 22.3343 
L 483.600316 20.778667 
L 483.754086 20.583636 
L 483.907857 20.778667 
L 484.138512 21.800476 
L 484.446053 24.508064 
L 484.830478 29.990184 
L 485.368674 41.323952 
L 486.06064 61.325443 
L 487.060147 97.859515 
L 489.366701 184.78166 
L 490.135552 204.492612 
L 490.673748 213.418968 
L 491.058174 217.039524 
L 491.365715 218.207594 
L 491.519485 218.207594 
L 491.673255 217.817724 
L 491.903911 216.5057 
L 492.211451 213.418968 
L 492.672762 206.030966 
L 493.210958 193.55825 
L 493.979809 169.731802 
L 495.133086 125.625987 
L 496.824559 61.325443 
L 497.59341 39.459702 
L 498.208491 27.524273 
L 498.669802 22.3343 
L 498.977343 20.778667 
L 499.131113 20.583636 
L 499.284883 20.778667 
L 499.515539 21.800476 
L 499.823079 24.508064 
L 500.207505 29.990184 
L 500.745701 41.323952 
L 501.437667 61.325443 
L 502.437174 97.859515 
L 504.743728 184.78166 
L 505.512579 204.492612 
L 506.050775 213.418968 
L 506.435201 217.039524 
L 506.742741 218.207594 
L 506.896511 218.207594 
L 507.050282 217.817724 
L 507.280937 216.5057 
L 507.588478 213.418968 
L 508.049788 206.030966 
L 508.587984 193.55825 
L 509.356836 169.731802 
L 510.510113 125.625987 
L 512.201586 61.325443 
L 512.970437 39.459702 
L 513.585518 27.524273 
L 514.046829 22.3343 
L 514.354369 20.778667 
L 514.50814 20.583636 
L 514.66191 20.778667 
L 514.892565 21.800476 
L 515.200106 24.508064 
L 515.584531 29.990184 
L 516.122727 41.323952 
L 516.814693 61.325443 
L 517.8142 97.859515 
L 520.120754 184.78166 
L 520.889606 204.492612 
L 521.427801 213.418968 
L 521.812227 217.039524 
L 522.119768 218.207594 
L 522.273538 218.207594 
L 522.427308 217.817724 
L 522.657964 216.5057 
L 522.965504 213.418968 
L 523.426815 206.030966 
L 523.965011 193.55825 
L 524.733862 169.731802 
L 525.887139 125.625987 
L 527.578612 61.325443 
L 528.347463 39.459702 
L 528.962544 27.524273 
L 529.423855 22.3343 
L 529.731396 20.778667 
L 529.885166 20.583636 
L 530.038936 20.778667 
L 530.269592 21.800476 
L 530.577132 24.508064 
L 530.961558 29.990184 
L 531.499754 41.323952 
L 532.19172 61.325443 
L 533.191227 97.859515 
L 535.497781 184.78166 
L 536.266632 204.492612 
L 536.804828 213.418968 
L 537.189254 217.039524 
L 537.496794 218.207594 
L 537.650564 218.207594 
L 537.804335 217.817724 
L 538.03499 216.5057 
L 538.342531 213.418968 
L 538.803841 206.030966 
L 539.342037 193.55825 
L 540.110889 169.731802 
L 541.264166 125.625987 
L 542.955639 61.325443 
L 543.72449 39.459702 
L 544.339571 27.524273 
L 544.800882 22.3343 
L 545.108422 20.778667 
L 545.262193 20.583636 
L 545.415963 20.778667 
L 545.646618 21.800476 
L 545.954159 24.508064 
L 546.338584 29.990184 
L 546.87678 41.323952 
L 547.568746 61.325443 
L 548.568253 97.859515 
L 550.874807 184.78166 
L 551.643659 204.492612 
L 552.181854 213.418968 
L 552.56628 217.039524 
L 552.873821 218.207594 
L 553.027591 218.207594 
L 553.181361 217.817724 
L 553.412017 216.5057 
L 553.719557 213.418968 
L 554.180868 206.030966 
L 554.719064 193.55825 
L 555.487915 169.731802 
L 556.641192 125.625987 
L 558.332665 61.325443 
L 559.101516 39.459702 
L 559.716597 27.524273 
L 560.177908 22.3343 
L 560.485449 20.778667 
L 560.639219 20.583636 
L 560.792989 20.778667 
L 561.023645 21.800476 
L 561.331185 24.508064 
L 561.715611 29.990184 
L 562.253807 41.323952 
L 562.945773 61.325443 
L 563.94528 97.859515 
L 566.251834 184.78166 
L 567.020685 204.492612 
L 567.558881 213.418968 
L 567.943307 217.039524 
L 568.250847 218.207594 
L 568.404617 218.207594 
L 568.558388 217.817724 
L 568.789043 216.5057 
L 569.096584 213.418968 
L 569.557894 206.030966 
L 570.09609 193.55825 
L 570.864942 169.731802 
L 572.018219 125.625987 
L 573.709692 61.325443 
L 574.478543 39.459702 
L 575.093624 27.524273 
L 575.554935 22.3343 
L 575.862475 20.778667 
L 576.016246 20.583636 
L 576.170016 20.778667 
L 576.400671 21.800476 
L 576.708212 24.508064 
L 577.092637 29.990184 
L 577.630833 41.323952 
L 578.322799 61.325443 
L 579.322306 97.859515 
L 581.62886 184.78166 
L 582.397712 204.492612 
L 582.935907 213.418968 
L 583.320333 217.039524 
L 583.627874 218.207594 
L 583.781644 218.207594 
L 583.935414 217.817724 
L 584.16607 216.5057 
L 584.47361 213.418968 
L 584.934921 206.030966 
L 585.473117 193.55825 
L 586.241968 169.731802 
L 587.395245 125.625987 
L 589.086718 61.325443 
L 589.855569 39.459702 
L 590.47065 27.524273 
L 590.931961 22.3343 
L 591.239502 20.778667 
L 591.316387 20.632406 
L 591.316387 20.632406 
" style="fill:none;stroke:#ff0000;stroke-linecap:square;stroke-width:1.5;"/>
   </g>
   <g id="patch_8">
    <path d="M 349.208949 228.14 
L 349.208949 10.7 
" style="fill:none;stroke:#000000;stroke-linecap:square;stroke-linejoin:miter;stroke-width:0.8;"/>
   </g>
   <g id="patch_9">
    <path d="M 602.845312 228.14 
L 602.845312 10.7 
" style="fill:none;stroke:#000000;stroke-linecap:square;stroke-linejoin:miter;stroke-width:0.8;"/>
   </g>
   <g id="patch_10">
    <path d="M 349.208949 228.14 
L 602.845312 228.14 
" style="fill:none;stroke:#000000;stroke-linecap:square;stroke-linejoin:miter;stroke-width:0.8;"/>
   </g>
   <g id="patch_11">
    <path d="M 349.208949 10.7 
L 602.845312 10.7 
" style="fill:none;stroke:#000000;stroke-linecap:square;stroke-linejoin:miter;stroke-width:0.8;"/>
   </g>
  </g>
 </g>
 <defs>
  <clipPath id="p838f324726">
   <rect height="217.44" width="253.636364" x="44.845313" y="10.7"/>
  </clipPath>
  <clipPath id="pb2f5c44ed7">
   <rect height="217.44" width="253.636364" x="349.208949" y="10.7"/>
  </clipPath>
 </defs>
</svg>
